<?xml version="1.0" encoding="utf-8"?>
<!-- Generator: Adobe Illustrator 18.1.1, SVG Export Plug-In . SVG Version: 6.00 Build 0)  -->
<svg version="1.1" id="Layer_1" xmlns="http://www.w3.org/2000/svg" xmlns:xlink="http://www.w3.org/1999/xlink" x="0px" y="0px"
	 viewBox="0 0 200 200" enable-background="new 0 0 200 200" xml:space="preserve">
<g>
	<g>
		<path fill="#9ACA3D" d="M99.9,0C155,0,199.9,44.7,200,99.9c0,55.2-44.8,100-100,100c-55.1,0-99.8-44.7-99.9-99.8
			C-0.1,45,44.6,0.1,99.9,0z M89.3,130c-1-0.9-1.7-1.6-2.5-2.3c-8.5-8.5-17-17-25.5-25.5c-2.3-2.4-5-3.7-8.4-3.1
			c-3.3,0.6-5.7,2.6-6.7,5.8c-1.1,3.5-0.3,6.7,2.4,9.4c11.3,11.2,22.5,22.5,33.7,33.7c5.2,5.2,10.5,5,15.3-0.6
			c19.8-23.5,39.5-47.1,59.3-70.6c3.8-4.5,3.7-9.8-0.2-13.1c-4-3.5-9.3-2.8-13.2,1.8c-6.2,7.4-12.4,14.8-18.6,22.2
			C113.2,101.6,101.4,115.7,89.3,130z"/>
		<path fill="#FDFEFB" d="M89.3,130c12-14.3,23.8-28.4,35.6-42.4c6.2-7.4,12.4-14.8,18.6-22.2c3.9-4.6,9.2-5.3,13.2-1.8
			c3.9,3.3,4,8.6,0.2,13.1c-19.7,23.6-39.5,47.1-59.3,70.6c-4.7,5.6-10,5.9-15.3,0.6c-11.2-11.2-22.5-22.5-33.7-33.7
			c-2.7-2.7-3.5-5.8-2.4-9.4c1-3.2,3.4-5.2,6.7-5.8c3.4-0.6,6,0.7,8.4,3.1c8.5,8.5,17,17,25.5,25.5C87.6,128.4,88.4,129.1,89.3,130z
			"/>
	</g>
</g>
</svg>
