<?xml version="1.0" standalone="no"?>
<!DOCTYPE svg PUBLIC "-//W3C//DTD SVG 1.1//EN" "http://www.w3.org/Graphics/SVG/1.1/DTD/svg11.dtd" >
<svg xmlns="http://www.w3.org/2000/svg">
<metadata>Generated by IcoMoon</metadata>
<defs>
<font id="icomoon" horiz-adv-x="1024">
<font-face units-per-em="1024" ascent="960" descent="-64" />
<missing-glyph horiz-adv-x="1024" />
<glyph unicode="&#x20;" horiz-adv-x="512" d="" />
<glyph unicode="&#xe900;" glyph-name="Forma-1-copy-4" horiz-adv-x="1107" d="M1083.062 495.671c14.8 13.636 24.038 33.113 24.038 54.748 0 8.529-1.436 16.722-4.079 24.351l0.157-0.522c-9.788 27.888-34.166 48.273-63.739 52.142l-0.395 0.042-268.057 37.569c-11.527 1.578-21.139 8.574-26.301 18.294l-0.092 0.189-119.844 234.529c-13.885 25.578-40.54 42.652-71.184 42.652s-57.299-17.074-70.973-42.228l-0.211-0.424-119.844-234.529c-5.243-9.919-14.86-16.92-26.212-18.464l-0.181-0.020-268.057-37.655c-29.968-3.911-54.347-24.297-63.966-51.636l-0.168-0.548c-2.486-7.107-3.921-15.3-3.921-23.829 0-21.635 9.239-41.112 23.987-54.701l0.052-0.047 193.95-182.516c6.547-6.079 10.631-14.734 10.631-24.343 0-2-0.177-3.959-0.516-5.862l0.030 0.201-45.737-257.913c-0.803-4.072-1.263-8.754-1.263-13.544 0-18.69 7-35.745 18.522-48.687l-0.064 0.074c15.11-16.784 36.91-27.29 61.164-27.29 13.365 0 25.984 3.19 37.139 8.85l-0.468-0.216 239.687 121.649c4.767 2.393 10.387 3.795 16.334 3.795s11.568-1.401 16.549-3.892l-0.214 0.097 239.773-121.649c10.741-5.624 23.463-8.923 36.955-8.923 24.223 0 45.962 10.635 60.803 27.49l0.077 0.089c11.461 12.857 18.464 29.904 18.464 48.587 0 4.799-0.462 9.49-1.344 14.031l0.075-0.461-45.737 257.913c-0.309 1.702-0.486 3.661-0.486 5.661 0 9.609 4.084 18.263 10.61 24.323l0.021 0.019z" />
<glyph unicode="&#xe901;" glyph-name="apple-black-silhouette-with-a-leaf" d="M534.927 663.292c18.002 30.064 46.489 73.092 82.471 114.379h0.041c30.474 35.041 90.151 80.014 90.151 80.014 8.97 6.779 8.008 16.22-2.191 20.971l-72.129 33.709c-10.199 4.772-24.064 1.29-30.822-7.7 0 0-53.349-76.532-116.14-239.447-194.147 87.816-378.688-35.184-378.688-249.073 0-223.412 171.885-562.779 404.329-460.34 244.813-105.941 404.451 236.908 404.451 460.34 0 215.732-165.885 342.214-381.473 247.148zM491.449 735.646c11.223 0.942 21.135 10.875 22.036 22.077 0 0 7.209 87.366-53.677 148.313-61.070 60.968-148.272 53.697-148.272 53.697-11.223-0.942-21.135-10.875-22.057-22.077 0 0-7.332-87.407 53.636-148.375 60.927-60.906 148.334-53.636 148.334-53.636z" />
<glyph unicode="&#xe902;" glyph-name="back" d="M328.361-64c-31.419 0-62.86 11.593-87.425 34.912-50.777 48.285-52.802 128.612-4.539 179.411l283.881 298.567-283.591 296.497c-48.441 50.621-46.661 130.948 3.983 179.411 50.666 48.463 130.971 46.661 179.411-3.983l367.256-383.9c46.817-48.953 46.906-126.053 0.289-175.161l-367.234-386.303c-24.988-26.19-58.432-39.451-92.031-39.451z" />
<glyph unicode="&#xe903;" glyph-name="cereals" d="M392.298 56.97c96.534 0 176.785 71.042 191.209 163.594h-382.419c14.422-92.552 94.675-163.594 191.209-163.594zM392.298 384.157c-63.417 0-116.619-44.404-130.249-103.742h260.497c-13.63 59.339-66.834 103.742-130.249 103.742zM706.249 503.86h-627.901v-566.593h627.901zM138.927 280.415h62.168c14.428 92.548 94.671 163.594 191.203 163.594s176.775-71.046 191.203-163.594h62.168v-29.926c0-139.709-113.662-253.371-253.371-253.371s-253.371 113.662-253.371 253.371zM766.1 220.564h179.554v-283.297h-179.554zM766.1 779.177h179.554v-498.762h-179.554zM964.149 839.028l59.851 119.703h-246.47l-59.849-119.703zM306.322 839.028l-59.851 119.703h-246.47l59.851-119.703zM78.348 779.177h627.901v-215.465h-627.901z" />
<glyph unicode="&#xe904;" glyph-name="check-mark" d="M874.020 85.98c199.973 199.973 199.973 524.067 0 724.040s-524.067 199.973-724.040 0-199.973-524.067 0-724.040 524.276-199.973 724.040 0zM328.43 526.255l115.136-115.136 252.213 252.004 89.225-89.225-341.438-341.229-204.361 204.361 89.225 89.225z" />
<glyph unicode="&#xe905;" glyph-name="chnage-password" d="M839.795 513.75h-15.059v133.408c0 172.434-140.196 312.842-312.842 312.842-172.434 0-312.842-140.196-312.842-312.842 0-15.907 12.726-28.633 28.633-28.633s28.633 12.726 28.633 28.633c0 140.832 114.532 255.576 255.576 255.576 140.832 0 255.576-114.532 255.576-255.576v-133.408h-583.264c-30.542 0-55.357-24.815-55.357-55.357v-356.534c0-91.413 74.446-165.859 165.859-165.859h434.585c91.413 0 165.859 74.446 165.859 165.859v356.534c0 30.542-24.815 55.357-55.357 55.357zM837.886 101.859c0-59.811-48.57-108.593-108.593-108.593h-434.373c-59.811 0-108.593 48.57-108.593 108.593v354.625h651.559v-354.625zM512.106 113.524c59.175 0 107.109 48.146 107.109 107.109 0 59.175-48.146 107.109-107.109 107.109-59.175 0-107.109-48.146-107.109-107.109s47.934-107.109 107.109-107.109zM512.106 270.688c27.572 0 49.843-22.482 49.843-49.843s-22.27-50.055-49.843-50.055-49.843 22.482-49.843 49.843 22.27 50.055 49.843 50.055z" />
<glyph unicode="&#xe906;" glyph-name="close" d="M602.561 447.989l402.675 402.675c25.018 24.996 25.018 65.554 0 90.551-25.018 25.018-65.533 25.018-90.551 0l-402.675-402.675-402.697 402.675c-25.018 25.018-65.533 25.018-90.551 0-25.018-24.996-25.018-65.554 0-90.551l402.697-402.675-402.697-402.675c-25.018-24.996-25.018-65.554 0-90.551 12.509-12.488 28.903-18.742 45.275-18.742s32.766 6.254 45.275 18.763l402.697 402.675 402.675-402.675c12.509-12.509 28.903-18.763 45.275-18.763s32.766 6.254 45.275 18.763c25.018 24.996 25.018 65.554 0 90.551l-402.675 402.654z" />
<glyph unicode="&#xe907;" glyph-name="coffee-beans" d="M188.306 32.159c-47.316 83.462-15.129 214.346 82.77 312.255 111.182 111.164 264.895 137.662 343.375 59.189 0.083-0.098 0.181-0.209 0.3-0.315-15.707-45.704-65.737-142.925-215.664-195.494-137.359-48.174-190.334-124.791-210.781-175.635zM568.243 275.378c-35.857-35.888-86.821-71.106-159.015-96.441-146.514-51.37-187.448-135.494-198.872-176.229 0.553-0.553 1-1.132 1.519-1.641 78.473-78.478 232.206-51.975 343.36 59.187 98.916 98.916 130.734 231.483 81.284 314.803-11.901-27.751-32.603-64.003-68.277-99.679zM265.055 636.913c158.279-13.87 243.904 54.125 277.032 89.289-0.057 0.14-0.098 0.297-0.142 0.424-39.172 103.823-190.164 143.003-337.249 87.506-129.535-48.879-212.801-154.878-204.070-250.418 39.583 37.893 119.42 85.883 264.43 73.199zM346.559 438.132c130.895 49.373 214.473 157.072 203.745 253.371-22.278-20.389-56.081-44.905-103.278-62.719-47.451-17.901-108.407-29.014-184.616-22.34-154.656 13.56-226.633-46.234-253.839-78.669 0.276-0.721 0.47-1.429 0.721-2.106 39.179-103.852 190.177-143.047 337.267-87.537zM804.633 654.641c94.963 127.409 82.077 235.997 69.553 282.654-0.145 0.016-0.287 0.070-0.421 0.101-108.932 21.209-221.592-86.702-251.64-241.002-26.462-135.931 20.012-262.438 105.885-305.206-11.449 53.59-10.333 146.723 76.623 263.453zM908.033 926.055c5.654-29.679 8.754-71.318-0.886-120.82-9.684-49.797-32.27-107.497-77.969-168.849-92.78-124.479-79.716-217.116-66.406-257.301 0.76-0.158 1.47-0.351 2.173-0.506 108.942-21.209 221.589 86.684 251.632 240.999 26.756 137.318-20.981 265.037-108.544 306.478z" />
<glyph unicode="&#xe908;" glyph-name="cupcake-dessert" d="M686.781 308.158c-40.533-13.722-82.852-20.667-126.103-20.667-66.264 0-130.329 16.29-187.079 47.365-44.965-39.323-102.848-61.404-162.967-61.404-20.722 0-40.755 2.831-60.007 7.653l59.599-321.84h605.901l55.389 299.050c-12.492-2.123-25.246-3.482-38.336-3.482-54.273 0-105.418 18.768-146.397 53.325zM393.67 18.472c-0.893-0.131-1.805-0.186-2.7-0.186-9.105 0-17.055 6.684-18.395 15.956l-23.31 161.235c-1.471 10.165 5.587 19.625 15.77 21.096 10.092 1.34 19.625-5.587 21.096-15.77l23.31-161.235c1.471-10.165-5.605-19.625-15.77-21.096zM546.919 36.067c0-10.277-8.342-18.619-18.619-18.619s-18.619 8.342-18.619 18.619v162.912c0 10.277 8.342 18.619 18.619 18.619s18.619-8.342 18.619-18.619v-162.912zM684.026 34.242c-1.34-9.272-9.309-15.956-18.395-15.956-0.893 0-1.787 0.055-2.7 0.186-10.165 1.471-17.241 10.91-15.77 21.096l23.31 161.235c1.489 10.184 10.985 17.128 21.096 15.77 10.165-1.471 17.241-10.91 15.77-21.096l-23.31-161.235zM122.604 330.145c3.388-1.564 6.814-3.072 10.296-4.469 3.351-1.322 6.741-2.552 10.147-3.724 21.226-7.206 43.902-11.283 67.567-11.283 62.652 0 118.767 27.518 157.346 70.937 54.404-35.691 120.796-56.898 192.702-56.898 47.997 0 93.503 9.533 134.704 26.382 34.742-36.307 83.578-59.040 137.796-59.040 15.752 0 30.981 2.123 45.634 5.715 3.333 0.82 6.684 1.564 9.943 2.552 3.445 1.042 6.778 2.345 10.129 3.575 72.966 26.81 125.135 96.705 125.135 178.98 0 85.197-55.856 157.289-132.918 181.829-18.377 153.026-159.226 272.036-330.405 272.036-146.379 0-270.396-87.117-314.857-207.968-11.469 1.935-23.18 3.165-35.207 3.165-116.332 0-210.616-94.302-210.616-210.611 0-84.863 50.288-157.811 122.604-191.177z" />
<glyph unicode="&#xe909;" d="M17.067 217.623c0.055-18.829 15.305-34.078 34.133-34.133h493.739c-0.41 1.041-0.683 2.133-1.058 3.174-1.877 5.12-3.652 10.24-5.12 15.36-0.751 2.611-1.365 5.291-2.031 7.953-1.126 4.403-2.27 8.772-3.14 13.261-0.768 3.977-1.28 8.021-1.843 12.066-0.478 3.413-1.109 6.827-1.434 10.24-0.819 7.697-1.246 15.428-1.246 23.279 0 131.959 106.974 238.933 238.933 238.933s238.933-106.974 238.933-238.933v358.4h-989.867v-409.6z" />
<glyph unicode="&#xe90a;" d="M972.8 866.157h-921.6c-18.829-0.055-34.078-15.305-34.133-34.133v-102.4h989.867v102.4c-0.055 18.829-15.305 34.078-34.133 34.133z" />
<glyph unicode="&#xe90b;" d="M17.067 627.223h989.867v102.4h-989.867v-102.4z" />
<glyph unicode="&#xe90c;" d="M768 507.757c-131.959 0-238.933-106.974-238.933-238.933v0c0-7.851 0.427-15.582 1.178-23.228 0.324-3.413 0.956-6.827 1.434-10.24 0.563-4.045 1.075-8.090 1.843-12.066 0.87-4.489 2.014-8.858 3.14-13.261 0.666-2.662 1.28-5.342 2.031-7.953 1.536-5.239 3.311-10.342 5.12-15.36 45.404-123.842 182.605-187.428 306.447-142.027 123.842 45.404 187.428 182.605 142.027 306.447-34.498 94.093-124.068 156.64-224.286 156.621zM682.667 320.023v17.067c0 9.425-7.642 17.067-17.067 17.067h-34.133c-9.425 0-17.067-7.642-17.067-17.067v-136.533c0-9.425 7.642-17.067 17.067-17.067h34.133c9.425 0 17.067 7.642 17.067 17.067 0-9.425-7.642-17.067-17.067-17.067h-34.133c-9.425 0-17.067 7.642-17.067 17.067v136.533c0 9.425 7.642 17.067 17.067 17.067h34.133c9.425 0 17.067-7.642 17.067-17.067v-17.067zM768 183.49v0 0zM887.467 183.49v0 0z" />
<glyph unicode="&#xe90d;" d="M768 507.757c131.959 0 238.933-106.974 238.933-238.933v0c0 131.959-106.974 238.933-238.933 238.933v0z" />
<glyph unicode="&#xe90e;" d="M768 507.757c-131.959 0-238.933-106.974-238.933-238.933v0c0 131.959 106.974 238.933 238.933 238.933z" />
<glyph unicode="&#xe90f;" d="M972.8 883.223h-921.6c-28.277 0-51.2-22.923-51.2-51.2v-614.4c0-28.277 22.923-51.2 51.2-51.2h482.321c56.516-129.547 207.351-188.749 336.896-132.233 93.303 40.704 153.609 132.836 153.583 234.633v563.2c0 28.277-22.923 51.2-51.2 51.2zM34.133 712.557h955.733v-68.267h-955.733v68.267zM51.2 849.090h921.6c9.425 0 17.067-7.642 17.067-17.067v-85.333h-955.733v85.333c0 9.425 7.642 17.067 17.067 17.067zM768 46.957c-93.6 0.16-177.045 59.004-208.623 147.115-1.519 4.147-2.953 8.311-4.198 12.527-0.922 3.14-1.707 6.349-2.458 9.557s-1.707 6.827-2.423 10.24c-0.836 4.284-1.417 8.653-1.997 13.022-0.341 2.594-0.819 5.12-1.075 7.799-0.683 7.168-1.092 14.336-1.092 21.606 0 122.534 99.332 221.867 221.867 221.867s221.867-99.332 221.867-221.867-99.332-221.867-221.867-221.867v0zM978.944 413.566c-3.686 5.335-7.571 10.524-11.657 15.565-1.126 1.417-2.27 2.833-3.413 4.215-4.659 5.53-9.489 10.923-14.592 16.043-0.529 0.546-1.109 1.041-1.707 1.57-4.693 4.642-9.609 9.062-14.66 13.329-1.382 1.178-2.765 2.338-4.181 3.413-5.632 4.574-11.401 8.96-17.425 13.039-0.512 0.358-1.075 0.666-1.587 1.024-5.615 3.738-11.401 7.202-17.289 10.496-1.621 0.905-3.226 1.809-4.864 2.679-6.468 3.413-13.039 6.673-19.814 9.557-0.41 0.171-0.853 0.307-1.28 0.495-6.417 2.679-13.005 5.12-19.678 7.219-1.707 0.58-3.601 1.143-5.41 1.707-7.151 2.15-14.37 4.096-21.76 5.615l-0.751 0.119c-7.151 1.451-14.455 2.509-21.828 3.413-1.929 0.222-3.857 0.427-5.803 0.597-7.646 0.683-15.394 1.161-23.245 1.161-141.318-0.16-255.84-114.682-256-256 0-7.782 0.478-15.514 1.178-23.194 0.171-1.963 0.375-3.908 0.597-5.871 0.802-7.066 1.826-14.097 3.226-21.060 0.205-1.024 0.427-2.031 0.631-3.055 1.092-5.12 2.27-10.103 3.669-15.087h-470.101c-9.425 0-17.067 7.642-17.067 17.067v392.533h955.733v-213.709c-2.935 5.12-6.059 10.018-9.318 14.865-0.512 0.768-1.075 1.485-1.604 2.253v0z" />
<glyph unicode="&#xe910;" d="M51.2 695.49h34.133v-34.133h-34.133v34.133z" />
<glyph unicode="&#xe911;" d="M119.467 695.49h34.133v-34.133h-34.133v34.133z" />
<glyph unicode="&#xe912;" d="M187.733 695.49h34.133v-34.133h-34.133v34.133z" />
<glyph unicode="&#xe913;" d="M256 695.49h34.133v-34.133h-34.133v34.133z" />
<glyph unicode="&#xe914;" d="M324.267 695.49h34.133v-34.133h-34.133v34.133z" />
<glyph unicode="&#xe915;" d="M392.533 695.49h34.133v-34.133h-34.133v34.133z" />
<glyph unicode="&#xe916;" d="M460.8 695.49h34.133v-34.133h-34.133v34.133z" />
<glyph unicode="&#xe917;" d="M529.067 695.49h34.133v-34.133h-34.133v34.133z" />
<glyph unicode="&#xe918;" d="M597.333 695.49h34.133v-34.133h-34.133v34.133z" />
<glyph unicode="&#xe919;" d="M665.6 695.49h34.133v-34.133h-34.133v34.133z" />
<glyph unicode="&#xe91a;" d="M733.867 695.49h34.133v-34.133h-34.133v34.133z" />
<glyph unicode="&#xe91b;" d="M802.133 695.49h34.133v-34.133h-34.133v34.133z" />
<glyph unicode="&#xe91c;" d="M870.4 695.49h34.133v-34.133h-34.133v34.133z" />
<glyph unicode="&#xe91d;" d="M938.667 695.49h34.133v-34.133h-34.133v34.133z" />
<glyph unicode="&#xe91e;" d="M68.267 268.823h119.467v-34.133h-119.467v34.133z" />
<glyph unicode="&#xe91f;" d="M221.867 268.823h256v-34.133h-256v34.133z" />
<glyph unicode="&#xe920;" d="M68.267 337.090h221.867v-34.133h-221.867v34.133z" />
<glyph unicode="&#xe921;" d="M341.333 337.090h136.533v-34.133h-136.533v34.133z" />
<glyph unicode="&#xe922;" d="M805.547 370.882c-9.235 1.841-18.219-4.147-20.070-13.38l-17.476-86.972-17.408 87.040c-1.53 9.301-10.308 15.601-19.61 14.071s-15.601-10.308-14.071-19.61c0.064-0.386 0.141-0.77 0.23-1.152l34.133-170.667c1.875-9.237 10.884-15.204 20.122-13.329 6.716 1.363 11.966 6.613 13.329 13.329l34.133 170.667c1.803 9.19-4.139 18.116-13.312 20.002v0z" />
<glyph unicode="&#xe923;" d="M904.875 357.57l-17.408-87.040-17.408 87.040c-1.53 9.301-10.308 15.601-19.61 14.071s-15.601-10.308-14.071-19.61c0.064-0.386 0.141-0.77 0.23-1.152l34.133-170.667c1.875-9.237 10.884-15.204 20.122-13.329 6.716 1.363 11.966 6.613 13.329 13.329l34.133 170.667c2.165 9.173-3.516 18.366-12.689 20.531s-18.366-3.516-20.531-12.689c-0.090-0.382-0.166-0.766-0.23-1.152z" />
<glyph unicode="&#xe924;" d="M665.6 371.223h-34.133c-18.852 0-34.133-15.281-34.133-34.133v-136.533c0-18.852 15.281-34.133 34.133-34.133h34.133c18.852 0 34.133 15.281 34.133 34.133v17.067c0 9.425-7.642 17.067-17.067 17.067s-17.067-7.642-17.067-17.067v-17.067h-34.133v136.533h34.133v-17.067c0-9.425 7.642-17.067 17.067-17.067s17.067 7.642 17.067 17.067v17.067c0 18.852-15.281 34.133-34.133 34.133z" />
<glyph unicode="&#xe925;" glyph-name="delivery-truck" d="M35.93 328.329v435.675c0 24.21 19.625 43.836 43.836 43.836h435.451c24.21 0 43.835-19.627 43.835-43.836v-435.677c0-8.070-6.541-14.612-14.612-14.612h-493.898c-8.072 0-14.612 6.542-14.612 14.614zM387.571 179.076c0-50.213-40.707-90.918-90.918-90.918s-90.918 40.706-90.918 90.918c0 50.214 40.707 90.918 90.918 90.918s90.918-40.704 90.918-90.918zM342.11 179.076c0 25.106-20.353 45.459-45.459 45.459s-45.461-20.353-45.461-45.459 20.355-45.461 45.461-45.461 45.459 20.355 45.459 45.461zM218.345 269.996h-203.732c-8.070 0-14.612-6.542-14.612-14.612v-44.332c0-8.070 6.542-14.612 14.612-14.612h163.301c4.263 29.254 19.029 55.095 40.431 73.556zM863.269 179.076c0-50.213-40.707-90.918-90.918-90.918-50.213 0-90.918 40.706-90.918 90.918 0 50.214 40.706 90.918 90.918 90.918 50.211 0.002 90.918-40.704 90.918-90.918zM817.811 179.076c0 25.106-20.355 45.459-45.461 45.459-25.108 0-45.459-20.353-45.459-45.459s20.353-45.461 45.459-45.461 45.461 20.355 45.461 45.461zM1024 255.384v-44.332c0-8.070-6.542-14.612-14.612-14.612h-118.302c-8.461 58.032-58.405 102.78-118.732 102.78-60.339 0-110.284-44.75-118.746-102.78h-238.217c-4.265 29.253-19.029 55.095-40.431 73.556h225.872v417.951c0 16.14 13.084 29.224 29.224 29.224h137.947c38.842 0 75.145-19.294 96.878-51.484l88.931-131.716c13.044-19.32 20.015-42.099 20.015-65.412v-198.562h35.561c8.070 0 14.612-6.542 14.612-14.612zM875.768 530.598l-71.113 101.050c-2.737 3.889-7.195 6.203-11.95 6.203h-110.925c-8.068 0-14.612-6.542-14.612-14.612v-101.050c0-8.072 6.542-14.612 14.612-14.612h182.041c11.836 0 18.76 13.34 11.947 23.022z" />
<glyph unicode="&#xe926;" glyph-name="drink" d="M300.041 86.096h421.851l11.629 95.9c7.271 59.983 14.545 119.967 21.824 179.948h-488.789c11.235-92.644 22.458-185.047 33.485-275.848zM308.652 15.197c5.483-45.15 43.917-79.197 89.4-79.197h225.845c45.488 0 83.922 34.053 89.4 79.209l1.315 10.849h-407.278zM787.17 558.066h-550.343c-16.578 0-30.019-13.44-30.019-30.019v-76.047c0-16.578 13.44-30.019 30.019-30.019h550.343c16.578 0 30.019 13.44 30.019 30.019v76.047c0 16.578-13.438 30.019-30.019 30.019zM762.155 618.103c-6.268 70.988-41.846 135.122-99.778 178.487v-0.002c-15.92 11.917-34.075 17.961-53.968 17.961h-0.38l-54.21-196.446zM545.748 814.549h-130.157c-19.89 0-38.048-6.044-53.968-17.959-57.93-43.365-93.51-107.501-99.778-178.487h229.693zM619.838 857.342l162.855 43.637c16.014 4.293 25.518 20.751 21.227 36.765-4.293 16.016-20.757 25.514-36.765 21.227l-179.454-48.084c-10.284-2.756-18.337-10.751-21.169-21.011l-20.785-75.327h62.283z" />
<glyph unicode="&#xe927;" glyph-name="edit" d="M968.832 904.896c-35.456 35.552-82.752 55.104-132.96 55.104s-97.44-19.52-132.928-55.040l-565.536-562.272c-3.36-3.328-5.92-7.328-7.52-11.744l-128-352c-4.128-11.36-1.472-24.192 6.88-32.992 6.144-6.464 14.56-9.952 23.232-9.952 3.136 0 6.272 0.448 9.376 1.408l318.368 97.664c4.992 1.504 9.536 4.256 13.248 7.936l595.872 595.872c35.584 35.488 55.136 82.784 55.136 133.024-0.032 50.208-19.552 97.472-55.168 132.992zM322.944 90.72l-119.168-36.608c-6.944 20.384-17.76 38.432-32.512 53.184-12.832 12.768-27.712 22.688-43.392 30.752l54.528 149.952h73.6v-64c0-17.696 14.304-32 32-32h56.48l-21.536-101.28zM793.984 554.528l-389.888-389.888 11.2 52.704c1.984 9.472-0.384 19.296-6.464 26.784-6.080 7.52-15.2 11.872-24.832 11.872h-64v64c0 17.664-14.336 32-32 32h-50.496l380.576 378.4 0.384-0.352c23.424 23.456 54.624 36.352 87.744 36.352s64.352-12.896 87.744-36.352 36.416-54.624 36.416-87.776c0-33.152-12.896-64.288-36.384-87.744zM923.584 684.128l-29.824-29.856c-2.88 45.728-21.856 88.352-54.496 121.024-32.672 32.704-75.328 51.648-121.184 54.496l30.080 29.856c23.36 23.456 54.56 36.352 87.712 36.352s64.32-12.896 87.712-36.352c23.488-23.456 36.416-54.624 36.416-87.744 0-33.184-12.864-64.352-36.416-87.776zM713.376 694.624l-320-320c-12.512-12.512-12.512-32.736 0-45.248 6.208-6.24 14.432-9.376 22.624-9.376s16.352 3.136 22.624 9.376l320 320c12.512 12.512 12.512 32.736 0 45.248-12.544 12.512-32.736 12.512-45.248 0z" />
<glyph unicode="&#xe928;" glyph-name="facebook" d="M886.009 960h-748.018c-76.206 0-137.986-61.777-137.986-137.986v-748.023c0-76.209 61.777-137.986 137.986-137.986h368.919l0.629 365.92h-95.066c-12.354 0-22.382 9.99-22.429 22.344l-0.456 117.951c-0.048 12.422 10.010 22.517 22.432 22.517h94.893v113.971c0 132.262 80.778 204.28 198.764 204.28h96.817c12.387 0 22.432-10.042 22.432-22.432v-99.457c0-12.385-10.037-22.424-22.419-22.432l-59.415-0.028c-64.165 0-76.589-30.49-76.589-75.237v-98.668h140.992c13.434 0 23.857-11.731 22.274-25.072l-13.98-117.951c-1.338-11.287-10.909-19.792-22.274-19.792h-126.383l-0.629-365.92h219.513c76.206 0 137.984 61.777 137.984 137.984v748.030c-0.003 76.209-61.78 137.986-137.989 137.986z" />
<glyph unicode="&#xe929;" glyph-name="file" d="M916.599-34.867l-46.199 46.199v597.333l-85.333 85.333v266.001h-682.667v-887.467h85.333v-85.333h658.534l46.199-46.199c3.328-3.328 7.697-5.001 12.066-5.001s8.738 1.673 12.066 5.001c6.673 6.673 6.673 17.459 0 24.132zM812.134 618.667h-197.734v197.734l197.734-197.734zM136.533 106.667v819.2h614.4v-197.734l-146.534 146.534h-416.666v-768h-51.2zM221.867 21.333v819.2h358.4v-256h256v-539.068l-128.239 128.239c29.696 35.157 47.701 80.503 47.701 130.031 0 111.309-90.556 201.865-201.865 201.865s-201.865-90.556-201.865-201.865 90.556-201.865 201.865-201.865c49.527 0 94.874 18.005 130.031 47.701l128.239-128.239h-590.268zM553.865 136.004c-92.484 0-167.731 75.247-167.731 167.731s75.247 167.731 167.731 167.731 167.731-75.247 167.731-167.731-75.247-167.731-167.731-167.731zM454.4 345.6h102.4c9.438 0 17.067 7.629 17.067 17.067s-7.629 17.067-17.067 17.067h-102.4c-9.438 0-17.067-7.629-17.067-17.067s7.629-17.067 17.067-17.067zM659.2 277.333h-204.8c-9.438 0-17.067-7.629-17.067-17.067s7.629-17.067 17.067-17.067h204.8c9.438 0 17.067 7.629 17.067 17.067s-7.629 17.067-17.067 17.067z" />
<glyph unicode="&#xe92a;" glyph-name="fish" d="M1016.807 863.685c-89.014 89.014-256.329 89.014-415.026 7.409-5.746-77.782 23.415-161.008 86.638-224.232 49.659-49.637 111.651-78.171 173.687-85.494 120.745 145.736 184.25 272.789 154.701 302.316zM849.082 807.503c-13.673-13.673-35.813-13.673-49.464-0.043-13.695 13.673-13.695 35.835 0 49.508 13.651 13.673 35.792 13.673 49.486 0 13.63-13.673 13.63-35.835-0.022-49.464zM544.238 837.613c-11.707-7.646-23.307-15.747-34.776-24.3l-27.216 14.343c-23.739 12.42-52.92 8.122-71.885-10.822l-191.421-191.421c-13.803-13.803-20.045-33.415-17.107-52.704 2.959-19.246 14.947-36.029 32.206-45.080l43.416-22.745c-43.503-101.434-67.112-200.817-73.549-263.76l-189.002-65.017c-8.532-2.916-14.407-10.692-14.883-19.678-0.475-9.007 4.514-17.41 12.658-21.211l82.426-38.816c16.135-7.603 29.074-20.563 36.677-36.677l38.816-82.405c3.823-8.122 12.226-13.133 21.19-12.658 9.007 0.475 16.783 6.394 19.721 14.861l65.081 189.304c88.734 14.623 242.656 82.448 376.34 184.595l14.969-46.224c2.7-8.359 9.482-14.623 18.036-16.675 8.554-2.074 17.475 0.54 23.717 6.739l16.006 16.027c12.312 12.334 19.894 28.663 21.103 46.073l5.659 81.26c23.35 23.523 45.49 47.067 66.399 70.417-61.669 14.299-121.415 46.203-170.728 95.516-65.297 65.319-100.225 148.912-103.854 231.057z" />
<glyph unicode="&#xe92b;" glyph-name="go-back-arrow" d="M168.457 736.495c-13.86-18.163-23.646-21.473-23.646-6.103v27.886c0 39.989-32.417 72.406-72.406 72.406s-72.406-32.417-72.406-72.406v-248.247c0-39.989 32.417-72.406 72.406-72.406h248.247c39.989 0 72.406 32.417 72.406 72.406s-32.417 72.406-72.406 72.406c0 0-11.978 0-26.769 0s-18.95 16.902-6.413 35.996c56.931 86.618 154.534 140.57 260.019 140.57 171.498 0 311.013-139.515 311.013-311.013 0-171.477-139.515-310.992-311.013-310.992-45.698 0-82.749-37.051-82.749-82.749s37.051-82.749 82.749-82.749c262.749-0.021 476.511 213.741 476.511 476.47 0 262.749-213.762 476.511-476.511 476.511-150.21 0.021-290.036-71.371-379.032-187.985z" />
<glyph unicode="&#xe92c;" d="M226.94 341.184l-35.644-133.064-130.278-2.756c-38.934 72.214-61.018 154.836-61.018 242.636 0 84.902 20.648 164.966 57.248 235.464h0.028l115.984-21.264 50.808-115.288c-10.634-31.002-16.43-64.282-16.43-98.912 0.004-37.584 6.812-73.594 19.302-106.816z" />
<glyph unicode="&#xe92d;" d="M1015.054 543.648c5.88-30.972 8.946-62.958 8.946-95.648 0-36.656-3.854-72.412-11.196-106.902-24.924-117.366-90.050-219.85-180.268-292.374l-0.028 0.028-146.088 7.454-20.676 129.070c59.864 35.108 106.648 90.050 131.292 155.822h-273.78v202.55h491.798z" />
<glyph unicode="&#xe92e;" d="M832.506 48.752l0.028-0.028c-87.742-70.526-199.202-112.724-320.534-112.724-194.982 0-364.504 108.982-450.982 269.362l165.922 135.82c43.238-115.396 154.556-197.542 285.060-197.542 56.094 0 108.646 15.164 153.74 41.636l166.766-136.524z" />
<glyph unicode="&#xe92f;" d="M838.808 842.128l-165.866-135.792c-46.67 29.172-101.838 46.024-160.942 46.024-133.458 0-246.858-85.914-287.93-205.448l-166.822 136.552c85.212 164.29 256.872 276.536 454.752 276.536 124.23 0 238.136-44.252 326.808-117.872z" />
<glyph unicode="&#xe930;" glyph-name="gps-fixed-indicator" d="M512 634.182c-102.4 0-186.182-83.782-186.182-186.182s83.782-186.182 186.182-186.182c102.4 0 186.182 83.782 186.182 186.182s-83.782 186.182-186.182 186.182zM926.255 494.545c-23.273 195.491-176.873 349.091-367.709 367.709v97.745h-93.091v-97.745c-195.491-18.618-349.091-172.218-367.709-367.709h-97.745v-93.091h97.745c23.273-195.491 176.873-349.091 367.709-367.709v-97.745h93.091v97.745c195.491 23.273 349.091 176.873 367.709 367.709h97.745v93.091h-97.745zM512 122.182c-181.527 0-325.818 144.291-325.818 325.818s144.291 325.818 325.818 325.818 325.818-144.291 325.818-325.818-144.291-325.818-325.818-325.818z" />
<glyph unicode="&#xe931;" glyph-name="icon" d="M511.978 960c-282.732 0-511.978-229.246-511.978-511.978s229.246-512.022 511.978-512.022 512.022 229.289 512.022 512.022-229.289 511.978-512.022 511.978zM618.561 166.503c-26.353-10.403-47.332-18.291-63.065-23.752-15.69-5.461-33.938-8.192-54.7-8.192-31.901 0-56.737 7.802-74.422 23.362s-26.483 35.282-26.483 59.251c0 9.319 0.65 18.855 1.95 28.564 1.344 9.709 3.468 20.632 6.372 32.898l32.985 116.508c2.904 11.183 5.418 21.802 7.412 31.684 1.994 9.969 2.947 19.115 2.947 27.437 0 14.824-3.077 25.226-9.189 31.078-6.198 5.851-17.858 8.712-35.239 8.712-8.495 0-17.251-1.257-26.223-3.901-8.886-2.731-16.601-5.201-22.929-7.629l8.712 35.889c21.585 8.799 42.26 16.341 61.982 22.582 19.721 6.328 38.359 9.449 55.914 9.449 31.684 0 56.13-7.715 73.338-22.972 17.121-15.3 25.746-35.195 25.746-59.641 0-5.071-0.607-14-1.777-26.743-1.17-12.786-3.381-24.446-6.588-35.152l-32.811-116.162c-2.687-9.319-5.071-19.982-7.238-31.901-2.124-11.92-3.164-21.022-3.164-27.133 0-15.43 3.424-25.963 10.359-31.554 6.848-5.591 18.855-8.409 35.845-8.409 8.019 0 16.991 1.43 27.133 4.204 10.056 2.774 17.338 5.245 21.932 7.368l-8.799-35.845zM612.753 637.998c-15.3-14.217-33.722-21.325-55.263-21.325-21.499 0-40.050 7.108-55.48 21.325-15.344 14.217-23.102 31.511-23.102 51.709 0 20.155 7.802 37.492 23.102 51.839 15.43 14.39 33.982 21.542 55.48 21.542 21.542 0 40.006-7.152 55.263-21.542 15.3-14.347 22.972-31.684 22.972-51.839 0-20.242-7.672-37.492-22.972-51.709z" />
<glyph unicode="&#xe932;" glyph-name="location_delivery-address" d="M511.785 960c-226.268 0-410.459-184.191-410.459-410.459 0-25.761 2.361-51.737 7.299-77.068 0.215-1.503 1.073-6.011 2.791-13.739 6.226-27.693 15.457-54.957 27.478-80.932 44.223-104.117 141.471-264.050 354.858-435.361 5.367-4.294 11.807-6.44 18.247-6.44s12.881 2.147 18.247 6.44c213.172 171.311 310.635 331.244 354.858 435.361 12.022 25.976 21.253 53.025 27.478 80.932 1.717 7.728 2.576 12.236 2.791 13.739 4.723 25.332 7.299 51.307 7.299 77.068-0.429 226.268-184.621 410.459-410.888 410.459zM857.842 482.563c0-0.429-0.215-0.859-0.215-1.288-0.215-1.073-0.859-4.294-1.932-9.231 0-0.215 0-0.215 0-0.429-5.367-24.044-13.31-47.443-23.829-69.984-0.215-0.215-0.215-0.644-0.429-0.859-40.144-95.101-128.161-240.221-319.651-398.437-191.49 158.216-279.507 303.336-319.651 398.437-0.215 0.215-0.215 0.644-0.429 0.859-10.304 22.326-18.247 45.94-23.829 69.984 0 0.215 0 0.215 0 0.429-1.288 4.938-1.717 8.158-1.932 9.231 0 0.429-0.215 0.859-0.215 1.503-4.294 22.112-6.44 44.438-6.44 66.979 0 194.281 158.216 352.496 352.496 352.496s352.496-158.216 352.496-352.496c0-22.756-2.147-45.296-6.44-67.193zM511.785 805.649c-143.618 0-260.616-116.998-260.616-260.616s116.998-260.616 260.616-260.616 260.616 116.998 260.616 260.616-116.998 260.616-260.616 260.616zM511.785 342.38c-111.846 0-202.653 91.022-202.653 202.653s91.022 202.653 202.653 202.653 202.653-91.022 202.653-202.653-90.808-202.653-202.653-202.653z" />
<glyph unicode="&#xe933;" glyph-name="logout" d="M494.656-5.324h-267.083c-72.584 0-131.477 59.11-131.477 131.477v643.694c0 72.584 59.11 131.477 131.477 131.477h271.43c16.299 0 29.338 13.039 29.338 29.338s-13.039 29.338-29.338 29.338h-271.43c-104.964 0-190.153-85.406-190.153-190.153v-643.694c0-104.964 85.406-190.153 190.153-190.153h267.083c16.299 0 29.338 13.039 29.338 29.338s-13.256 29.338-29.338 29.338zM977.97 468.645l-186.458 186.458c-11.518 11.518-29.99 11.518-41.508 0s-11.518-29.99 0-41.508l136.475-136.475h-595.233c-16.299 0-29.338-13.039-29.338-29.338s13.039-29.338 29.338-29.338h595.233l-136.475-136.475c-11.518-11.518-11.518-29.99 0-41.508 5.65-5.65 13.256-8.693 20.645-8.693s14.995 2.825 20.645 8.693l186.458 186.458c11.735 11.735 11.735 30.424 0.217 41.725z" />
<glyph unicode="&#xe934;" glyph-name="menu1" d="M640 448c0-70.692-57.308-128-128-128s-128 57.308-128 128c0 70.692 57.308 128 128 128s128-57.308 128-128zM640 64c0-70.692-57.308-128-128-128s-128 57.308-128 128c0 70.692 57.308 128 128 128s128-57.308 128-128zM640 832c0-70.692-57.308-128-128-128s-128 57.308-128 128c0 70.692 57.308 128 128 128s128-57.308 128-128z" />
<glyph unicode="&#xe935;" glyph-name="minus" d="M585.143 374.857h-585.143v146.286h585.143zM585.143 521.143h438.857v-146.286h-438.857z" />
<glyph unicode="&#xe936;" glyph-name="offer-1" d="M11.452 431.701l517.291 518.69c6.872 6.649 16.248 10.747 26.582 10.747 1.187 0 2.361-0.054 3.52-0.16l-0.149 0.011 387.755-44.186c17.228-1.867 30.776-15.444 32.584-32.523l0.014-0.16 44.066-388.779c0.12-1.127 0.189-2.435 0.189-3.758 0-10.242-4.112-19.523-10.775-26.283l0.004 0.004-517.274-518.69c-6.714-6.566-15.91-10.617-26.053-10.617-0.135 0-0.269 0.001-0.404 0.002h0.020c-10.251 0.059-19.552 4.083-26.454 10.615l0.018-0.017-431.821 432.981c-6.535 6.522-10.578 15.54-10.578 25.501 0 0.353 0.005 0.704 0.015 1.055l-0.001-0.052c0.866 9.992 5.067 18.867 11.47 25.637l-0.019-0.020zM947.337 505.088l-38.775 341.026-340.241 38.793-351.573-352.478 378.88-379.955zM468.821 25.259l74.018 74.223-378.999 379.938-73.95-74.223zM598.357 733.901c25.359 25.643 60.544 41.523 99.438 41.523 0.081 0 0.162 0 0.243 0h-0.013c77.679-0.209 140.569-63.228 140.569-140.936 0-38.815-15.691-73.964-41.075-99.453l0.005 0.005c-25.346-25.612-60.504-41.472-99.366-41.472-0.047 0-0.093 0-0.14 0h0.007c-0.122 0-0.267-0.001-0.412-0.001-77.686 0-140.663 62.977-140.663 140.663 0 38.946 15.827 74.195 41.401 99.665l0.005 0.005zM650.342 587.127c12.319-11.494 28.909-18.55 47.147-18.55s34.827 7.056 47.187 18.588l-0.041-0.037c11.855 12.209 19.164 28.888 19.164 47.275s-7.309 35.066-19.18 47.291l0.016-0.017c-11.957 11.935-28.464 19.315-46.694 19.315-36.506 0-66.099-29.594-66.099-66.099 0-0.017 0-0.033 0-0.050v0.003c-0.033-0.764-0.051-1.661-0.051-2.562 0-17.583 7.092-33.509 18.572-45.074l-0.004 0.004z" />
<glyph unicode="&#xe937;" glyph-name="offer-2" d="M440.047 493.193v73.045c0 43.793-28.638 69.973-76.612 69.973s-76.561-26.146-76.561-69.973v-73.062c0-43.81 28.621-69.973 76.561-69.973s76.612 26.18 76.612 69.99zM384.375 493.193c0-11.127-3.413-18.005-20.924-18.005-17.067 0-20.48 6.605-20.48 18.005v73.045c0 11.418 3.413 18.022 20.48 18.022 17.425 0 20.924-6.827 20.924-18.022v-73.062zM637.15 626.313c-0.567 15.671-13.408 28.16-29.166 28.16-0.048 0-0.097 0-0.145 0h0.007c-0.272 0.010-0.592 0.016-0.913 0.016-10.031 0-18.714-5.769-22.913-14.17l-0.067-0.148-187.511-358.98c-1.912-3.623-3.045-7.914-3.072-12.467v-0.009c0.511-15.142 12.909-27.222 28.128-27.222 0.065 0 0.131 0 0.196 0.001h-0.010c0.125-0.002 0.273-0.003 0.422-0.003 10.934 0 20.416 6.216 25.104 15.308l0.074 0.158 186.778 356.352c1.947 3.715 3.090 8.116 3.090 12.784 0 0.084 0 0.167-0.001 0.251v-0.013zM663.637 466.039c-47.957 0-76.595-26.146-76.595-69.973v-73.062c0-43.81 28.638-69.973 76.595-69.973s76.578 26.129 76.578 69.973v73.097c0 43.793-28.638 69.939-76.578 69.939zM684.544 323.021c0-11.11-3.499-18.005-20.907-18.005-0.575-0.046-1.245-0.072-1.92-0.072-5.252 0-10.135 1.582-14.198 4.295l0.093-0.059c-2.798 3.151-4.507 7.324-4.507 11.896 0 0.679 0.038 1.349 0.111 2.009l-0.007-0.081v73.097c-0.066 0.579-0.104 1.251-0.104 1.931 0 4.576 1.709 8.754 4.523 11.928l-0.016-0.019c3.975 2.663 8.865 4.251 14.127 4.251 0.662 0 1.319-0.025 1.968-0.075l-0.086 0.005c17.408 0 20.907-6.827 20.907-18.022v-73.062zM1012.736 479.607l-95.573 96.393 19.251 132.813c0.264 1.845 0.415 3.975 0.415 6.141 0 22.678-16.548 41.491-38.228 45.023l-0.263 0.035-135.356 23.177-64.393 118.46c-8.218 14.531-23.567 24.179-41.169 24.179-7.427 0-14.453-1.718-20.703-4.778l0.278 0.123-123.443-58.897-123.46 58.897c-5.973 2.94-13.001 4.66-20.432 4.66-17.602 0-32.949-9.651-41.040-23.95l-0.122-0.235-64.393-118.494-135.373-23.194c-21.943-3.567-38.491-22.381-38.491-45.059 0-2.166 0.151-4.296 0.443-6.382l-0.028 0.24 19.251-132.762-95.573-96.393c-8.073-8.084-13.066-19.245-13.066-31.573s4.993-23.49 13.067-31.574v0l95.573-96.461-19.251-132.813c-0.265-1.846-0.416-3.977-0.416-6.144 0-22.672 16.539-41.482 38.211-45.021l0.263-0.036 135.373-23.194 64.393-118.494c8.223-14.528 23.573-24.174 41.176-24.174 7.424 0 14.448 1.716 20.696 4.773l-0.278-0.123 123.46 58.897 123.46-58.897c5.97-2.919 12.99-4.625 20.409-4.625 0.025 0 0.050 0 0.075 0h-0.004c0.069 0 0.152-0.001 0.234-0.001 17.532 0 32.81 9.651 40.81 23.931l0.121 0.236 64.41 118.494 135.356 23.177c21.935 3.575 38.474 22.384 38.474 45.056 0 2.167-0.151 4.298-0.443 6.384l0.028-0.24-19.268 132.813 95.573 96.41c8.078 8.084 13.075 19.25 13.075 31.582 0 12.349-5.010 23.528-13.108 31.615l-0.001 0.001zM834.406 367.241c-8.092-8.102-13.096-19.289-13.096-31.645 0-2.232 0.163-4.427 0.479-6.571l-0.029 0.243 16.128-111.275-113.408-19.422c-14.344-2.461-26.251-11.2-32.971-23.231l-0.121-0.236-53.948-99.26-103.424 49.34c-5.991 2.927-13.036 4.639-20.48 4.639s-14.489-1.711-20.762-4.762l0.282 0.124-103.441-49.34-53.914 99.26c-6.841 12.266-18.748 21.005-32.816 23.427l-0.276 0.039-113.408 19.422 16.111 111.275c0.288 1.908 0.453 4.109 0.453 6.349 0 12.347-4.999 23.526-13.083 31.625l0.001-0.001-80.043 80.759 80.060 80.777c8.082 8.098 13.080 19.276 13.080 31.622 0 2.234-0.164 4.431-0.48 6.577l0.029-0.243-16.111 111.258 113.408 19.422c14.348 2.451 26.259 11.194 32.971 23.231l0.121 0.236 53.965 99.277 103.441-49.357c5.992-2.92 13.037-4.628 20.48-4.628s14.488 1.707 20.763 4.752l-0.283-0.124 103.441 49.357 53.965-99.277c6.838-12.27 18.746-21.010 32.816-23.427l0.276-0.039 113.391-19.388-16.128-111.258c-0.288-1.908-0.453-4.109-0.453-6.349 0-12.347 4.999-23.526 13.083-31.625l-0.001 0.001 79.991-80.794z" />
<glyph unicode="&#xe938;" glyph-name="order-history" d="M307.407 285.773h564.225c63.978 0 116.17 52.192 116.17 116.17v237.391c0 0.21 0 0.631 0 0.842 0 0.631 0 1.052 0 1.684 0 0.421 0 0.842-0.21 1.263 0 0.421-0.21 1.052-0.21 1.473s-0.21 0.842-0.21 1.263c-0.21 0.421-0.21 0.842-0.421 1.473-0.21 0.421-0.21 0.842-0.421 1.263s-0.21 0.842-0.421 1.263c-0.21 0.421-0.421 0.842-0.631 1.473-0.21 0.421-0.421 0.842-0.631 1.052-0.21 0.421-0.421 0.842-0.631 1.263s-0.421 0.631-0.631 1.052c-0.21 0.421-0.631 0.842-0.842 1.263s-0.421 0.631-0.842 1.052c-0.21 0.421-0.631 0.631-0.842 1.052s-0.631 0.631-0.842 1.052-0.631 0.631-0.842 0.842c-0.421 0.421-0.631 0.631-1.052 1.052-0.421 0.21-0.631 0.631-1.052 0.842s-0.842 0.631-1.263 0.842c-0.421 0.21-0.631 0.421-1.052 0.631s-0.842 0.421-1.263 0.842c-0.421 0.21-0.842 0.421-1.263 0.631s-0.842 0.421-1.263 0.631-0.842 0.421-1.263 0.631-0.842 0.21-1.263 0.421c-0.421 0.21-1.052 0.421-1.473 0.421s-0.842 0.21-1.052 0.21-1.052 0.21-1.684 0.21c-0.21 0-0.421 0.21-0.842 0.21l-715.12 98.703v99.755c0 1.052 0 2.105-0.21 2.946 0 0.21 0 0.421-0.21 0.842 0 0.631-0.21 1.263-0.21 1.894-0.21 0.631-0.21 1.052-0.421 1.684 0 0.421-0.21 0.631-0.21 1.052-0.21 0.631-0.421 1.263-0.631 1.894 0 0.21-0.21 0.631-0.21 0.842-0.21 0.631-0.421 1.052-0.842 1.684-0.21 0.21-0.21 0.631-0.421 0.842-0.21 0.421-0.421 0.842-0.842 1.263-0.21 0.421-0.421 0.631-0.631 1.052s-0.421 0.631-0.631 1.052-0.631 0.842-0.842 1.263c-0.21 0.21-0.421 0.421-0.631 0.631-0.421 0.421-0.842 0.842-1.263 1.263-0.21 0.21-0.421 0.421-0.631 0.631-0.421 0.421-0.842 0.842-1.473 1.263-0.21 0.21-0.631 0.421-0.842 0.631-0.421 0.421-0.842 0.631-1.263 1.052-0.631 0.421-1.263 0.842-1.684 1.052-0.21 0.21-0.421 0.21-0.631 0.421-0.842 0.421-1.894 0.842-2.736 1.263l-155.104 65.24c-14.521 6.103-31.147-0.631-37.25-15.153s0.631-31.147 15.153-37.25l137.636-58.085v-622.521c0-58.927 44.195-107.752 101.228-115.118-10.312-17.257-16.415-37.461-16.415-58.927 0-63.346 51.561-114.697 114.697-114.697s114.697 51.561 114.697 114.697c0 21.045-5.682 41.038-15.784 57.875h255.49c-10.102-17.047-15.784-36.829-15.784-57.875 0-63.346 51.561-114.697 114.697-114.697s114.697 51.561 114.697 114.697-51.561 114.697-114.697 114.697h-536.656c-32.831 0-59.348 26.728-59.348 59.348v77.026c17.257-10.102 37.671-15.994 59.348-15.994zM448.831 50.907c0-31.989-26.096-57.875-57.875-57.875s-57.875 26.096-57.875 57.875 26.096 57.875 57.875 57.875 57.875-25.886 57.875-57.875zM902.148 50.907c0-31.989-26.096-57.875-57.875-57.875s-57.875 26.096-57.875 57.875 26.096 57.875 57.875 57.875 57.875-25.886 57.875-57.875zM871.632 342.596h-564.225c-32.831 0-59.348 26.728-59.348 59.348v307.051l682.921-94.073v-212.768c0-33.041-26.728-59.558-59.348-59.558z" />
<glyph unicode="&#xe939;" glyph-name="paper-bag" d="M895.872 674.88c-1.504 16.48-15.264 29.12-31.872 29.12h-160v64c0 105.888-86.080 192-192 192-105.888 0-192-86.112-192-192v-64h-160c-16.576 0-30.368-12.64-31.872-29.12l-64-704c-0.8-8.928 2.176-17.824 8.256-24.448 6.048-6.656 14.624-10.432 23.616-10.432h832c8.992 0 17.568 3.776 23.616 10.432 6.016 6.624 9.056 15.488 8.256 24.448l-64 704zM384 768c0 70.592 57.44 128 128 128s128-57.408 128-128v-64h-256v64zM131.072 0l58.144 640h130.784v-72.864c-19.072-11.104-32-31.52-32-55.136 0-35.328 28.672-64 64-64s64 28.672 64 64c0 23.616-12.928 44.032-32 55.136v72.864h256v-72.864c-19.072-11.104-32-31.488-32-55.136 0-35.328 28.672-64 64-64s64 28.672 64 64c0 23.616-12.896 44.032-32 55.136v72.864h130.784l58.144-640h-761.856z" />
<glyph unicode="&#xe93a;" glyph-name="perfume-bottle" d="M927.616 872.709c0-47.318-69.311-87.297-151.351-87.297-67.429 0-126.221 27.012-145.039 62.905h-134.892c-5.668-21.733-19.373-37.081-35.405-37.081-16.037 0-29.743 15.349-35.41 37.081h-2.798c-12.262 0-22.204 9.942-22.204 22.204s9.942 22.204 22.204 22.204h2.798c5.668 21.733 19.373 37.081 35.41 37.081s29.743-15.349 35.41-37.081h132.827c16.165 38.047 76.96 67.274 147.099 67.274 82.040 0 151.351-39.973 151.351-87.291zM466.725 628.194c27.911-0.389 55.428-3.714 82.24-9.659v120.537c0 27.545-22.415 49.96-49.96 49.96h-76.161c-27.545 0-49.96-22.415-49.96-49.96v-120.559c30.192 6.667 61.578 10.109 93.841 9.681zM724.563-32.353c-19.212-20.112-46.402-31.647-74.596-31.647h-378.085c-28.177 0-55.328 11.496-74.496 31.547-65.131 68.129-101.002 157.524-101.002 251.731 0 201.011 163.53 364.541 364.541 364.541 1.726 0 3.458-0.011 5.19-0.033 193.245-2.681 350.952-155.903 359.034-348.825 4.186-100.103-31.536-195.032-100.586-267.313zM419.685 482.55c-0.533 12.251-10.808 21.844-23.143 21.222-1.843-0.078-184.457-10.569-221.794-236.876-1.993-12.101 6.195-23.526 18.296-25.524 1.221-0.2 2.437-0.3 3.642-0.3 10.675 0 20.089 7.716 21.882 18.596 31.275 189.614 173.711 199.407 179.978 199.74 12.207 0.577 21.666 10.919 21.139 23.143z" />
<glyph unicode="&#xe93b;" glyph-name="play-button" d="M512 960c-282.317 0-512-229.683-512-512s229.683-512 512-512 512 229.683 512 512-229.683 512-512 512zM777.609 433.903l-375.467-256c-2.884-1.963-6.246-2.97-9.609-2.97-2.731 0-5.478 0.649-7.97 1.98-5.598 2.953-9.097 8.755-9.097 15.087v512c0 6.332 3.499 12.134 9.097 15.087 5.598 2.97 12.356 2.56 17.596-0.99l375.467-256c4.642-3.174 7.441-8.448 7.441-14.097s-2.799-10.923-7.458-14.097z" />
<glyph unicode="&#xe93c;" glyph-name="plus" d="M1024 374.857h-438.857v-438.857h-146.286v438.857h-438.857v146.286h438.857v438.857h146.286v-438.857h438.857v-146.286z" />
<glyph unicode="&#xe93d;" glyph-name="profile" d="M508.289 408.24c1.060 0 2.121 0 3.393 0 0.424 0 0.848 0 1.272 0 0.636 0 1.484 0 2.121 0 62.131 1.060 112.388 22.902 149.497 64.676 81.64 92.031 68.069 249.797 66.584 264.853-5.301 113.024-58.738 167.097-102.845 192.331-32.868 18.873-71.25 29.051-114.084 29.899h-1.484c-0.212 0-0.636 0-0.848 0h-1.272c-23.538 0-69.765-3.817-114.084-29.051-44.531-25.234-98.816-79.308-104.118-193.18-1.484-15.056-15.056-172.823 66.584-264.853 36.897-41.774 87.153-63.616 149.285-64.676zM349.038 732.468c0 0.636 0.212 1.272 0.212 1.696 6.998 152.041 114.932 168.369 161.16 168.369h0.848c0.424 0 1.060 0 1.696 0 57.254-1.272 154.586-24.598 161.16-168.369 0-0.636 0-1.272 0.212-1.696 0.212-1.484 15.056-145.68-52.377-221.595-26.719-30.111-62.343-44.955-109.207-45.379-0.424 0-0.636 0-1.060 0v0c-0.424 0-0.636 0-1.060 0-46.651 0.424-82.488 15.268-108.995 45.379-67.221 75.491-52.801 220.322-52.589 221.595zM947.449 146.568c0 0.212 0 0.424 0 0.636 0 1.696-0.212 3.393-0.212 5.301-1.272 41.986-4.029 140.166-96.060 171.55-0.636 0.212-1.484 0.424-2.121 0.636-95.636 24.386-175.155 79.52-176.003 80.156-12.935 9.118-30.748 5.937-39.866-6.998s-5.937-30.748 6.998-39.866c3.605-2.545 88.002-61.283 193.604-88.426 49.408-17.6 54.922-70.401 56.406-118.749 0-1.908 0-3.605 0.212-5.301 0.212-19.085-1.060-48.56-4.453-65.524-34.352-19.509-169.006-86.941-373.848-86.941-203.994 0-339.496 67.645-374.060 87.153-3.393 16.964-4.877 46.439-4.453 65.524 0 1.696 0.212 3.393 0.212 5.301 1.484 48.348 6.998 101.149 56.406 118.749 105.602 27.143 189.999 86.093 193.604 88.426 12.935 9.118 16.116 26.931 6.998 39.866s-26.931 16.116-39.866 6.998c-0.848-0.636-79.944-55.77-176.003-80.156-0.848-0.212-1.484-0.424-2.121-0.636-92.031-31.596-94.787-129.776-96.060-171.55 0-1.908 0-3.605-0.212-5.301 0-0.212 0-0.424 0-0.636-0.212-11.027-0.424-67.645 10.815-96.060 2.121-5.513 5.937-10.179 11.027-13.359 6.362-4.241 158.827-101.361 413.926-101.361s407.564 97.332 413.926 101.361c4.877 3.181 8.906 7.846 11.027 13.359 10.603 28.203 10.391 84.821 10.179 95.848z" />
<glyph unicode="&#xe93e;" glyph-name="pumpkin-vegetable" d="M508.536 714.515c11.451 0 23.412 5.147 24.696 18.027 1.278 12.836-18.018 125.652 86.893 174.606 11.050 5.156 13.159 14.806 4.72 21.553-8.441 6.751-57.5 36.286-79.216 12.162-71.716-79.675-62.673-191.878-61.848-202.564 1.11-14.344 12.607-23.784 24.754-23.784zM717.45 373.032c0 194.675-74.507 306.326-204.424 306.326-129.913 0-204.421-111.651-204.421-306.326 0-112.136 18.312-216.696 51.566-294.413 25.919-60.582 73.479-132.803 152.855-132.803 67.327 0 119.924 44.664 156.341 132.751 31.008 74.995 48.083 179.57 48.083 294.466zM692.432 688.706c-1.981 0-3.959-0.009-5.955-0.023 63.289-15.872 113.829-45.114 150.586-87.196 49.12-56.239 74.031-135.717 74.031-236.219 0-100.816-18.042-185.996-53.625-253.171-29.483-55.67-70.981-98.969-123.659-129.138 238.682 65.206 290.19 241.971 290.19 382.309 0 217.637-108.456 323.438-331.568 323.438zM166.528 112.093c-35.581 67.176-53.622 152.355-53.622 253.171 0 100.505 24.908 179.98 74.034 236.219 36.757 42.081 87.3 71.324 150.584 87.196-1.99 0.015-3.977 0.023-5.955 0.023-223.113 0.003-331.568-105.798-331.568-323.438 0-140.338 51.505-317.103 290.19-382.309-52.678 30.166-94.176 73.468-123.662 129.138zM346.185 626.439c13.214 18.068 28.458 33.446 45.471 45.887-49.721-6.861-91.486-20.787-127.241-42.375-82.324-49.701-124.063-138.755-124.063-264.689 0-153.607 44.69-345.090 254.938-395.523-83.347 89.325-113.385 265.688-113.385 404.876 0.003 108.781 21.629 193.504 64.28 251.824zM885.701 365.265c0 182.129-84.785 285.545-252.085 307.639 17.321-12.537 32.833-28.11 46.256-46.468 42.657-58.316 64.28-143.040 64.28-251.818 0-120.641-18.094-230.86-50.964-310.34-15.715-38.021-34.901-69.299-57.137-93.214 205.841 52.385 249.651 242.25 249.651 394.201z" />
<glyph unicode="&#xe93f;" glyph-name="search" d="M990 27.6l-235.6 235.6c58.4 71.2 93.6 162.4 93.6 261.8 0 228-185 413-413 413-228.2 0-413-185-413-413s184.8-413 413-413c99.4 0 190.4 35 261.6 93.4l235.6-235.4c16-16 41.8-16 57.8 0 16 15.8 16 41.8 0 57.6zM435 194.2c-182.6 0-331 148.4-331 330.8s148.4 331 331 331c182.4 0 331-148.6 331-331s-148.6-330.8-331-330.8z" />
<glyph unicode="&#xe940;" glyph-name="secure" d="M946.975 682.165l-0.031 0.797c-0.445 9.836-0.742 20.242-0.922 31.82-0.836 56.461-45.719 103.164-102.187 106.32-117.734 6.57-208.812 44.961-286.632 120.812l-0.664 0.633c-25.383 23.273-63.672 23.273-89.062 0l-0.664-0.633c-77.82-75.851-168.898-114.242-286.632-120.82-56.461-3.148-101.351-49.851-102.187-106.32-0.172-11.5-0.477-21.906-0.922-31.812l-0.047-1.852c-2.289-120.054-5.133-269.468 44.851-405.085 27.484-74.578 69.109-139.406 123.711-192.695 62.187-60.687 143.64-108.867 242.093-143.195 3.203-1.117 6.531-2.023 9.922-2.703 4.781-0.953 9.594-1.43 14.406-1.43s9.633 0.477 14.406 1.43c3.391 0.68 6.742 1.594 9.961 2.719 98.336 34.391 179.703 82.594 241.835 143.273 54.578 53.305 96.203 118.148 123.711 192.742 50.172 136.023 47.336 285.718 45.055 405.999zM845.546 296.955c-52.719-142.937-160.335-241.101-328.999-300.085-0.602-0.203-1.242-0.383-1.906-0.516-1.742-0.344-3.516-0.344-5.281 0.008-0.656 0.133-1.297 0.305-1.891 0.508-168.843 58.875-276.53 156.984-329.21 299.929-46.070 125.007-43.461 262.163-41.156 383.163l0.016 0.672c0.469 10.398 0.781 21.289 0.953 33.258 0.375 25.070 20.344 45.812 45.461 47.211 66.625 3.719 125.156 16.594 178.937 39.359 53.711 22.734 101.414 54.781 145.82 97.968 2.258 1.906 5.187 1.914 7.437 0 44.414-43.187 92.117-75.234 145.82-97.968 53.781-22.766 112.312-35.641 178.945-39.359 25.117-1.398 45.086-22.141 45.453-47.219 0.18-12.031 0.492-22.922 0.961-33.25 2.297-121.14 4.844-258.406-41.359-383.679zM511.992 703.18c-140.718 0-255.195-114.484-255.195-255.195 0-140.718 114.476-255.202 255.195-255.202 140.711 0 255.195 114.484 255.195 255.202 0 140.711-114.484 255.195-255.195 255.195zM511.992 252.877c-107.586 0-195.109 87.523-195.109 195.109s87.523 195.109 195.109 195.109c107.578 0 195.101-87.523 195.101-195.109s-87.523-195.109-195.101-195.109zM585.336 527.212l-118.531-118.531-32.172 32.172c-11.734 11.734-30.758 11.734-42.492 0-11.727-11.734-11.727-30.758 0-42.484l53.422-53.422c5.867-5.867 13.555-8.797 21.242-8.797s15.375 2.93 21.242 8.797l139.781 139.781c11.727 11.734 11.727 30.758 0 42.484-11.734 11.742-30.758 11.742-42.492 0z" />
<glyph unicode="&#xe941;" glyph-name="secure-payment" d="M646.996 574.090c-6.609 6.606-15.821 10.396-25.276 10.396-9.589 0-18.561-3.689-25.273-10.396l-125.156-125.153-43.219 43.225c-6.749 6.729-15.718 10.436-25.25 10.436-9.541 0-18.515-3.712-25.273-10.464-6.752-6.755-10.473-15.735-10.473-25.282 0-9.555 3.724-18.535 10.47-25.279l68.492-68.498c6.695-6.681 15.664-10.359 25.247-10.359 0.003 0 0.003 0 0.003 0 9.589 0 18.555 3.681 25.282 10.384l150.432 150.429c13.934 13.934 13.936 36.61-0.006 50.561zM929.354 748.963c-0.566 6.512-4.51 12.249-10.387 15.106l-398.834 194.058c-5.134 2.5-11.134 2.5-16.267 0l-398.831-194.055c-5.877-2.86-9.824-8.594-10.387-15.106-0.509-5.851-11.946-145.284 32.114-315.584 25.954-100.318 65.918-190.311 118.781-267.48 66.302-96.783 153.069-173.432 257.9-227.813 2.683-1.393 5.623-2.088 8.56-2.088s5.877 0.695 8.56 2.088c104.828 54.382 191.601 131.028 257.903 227.813 52.863 77.169 92.828 167.163 118.779 267.48 44.057 170.3 32.62 309.73 32.111 315.582zM511.999 240.153c-130.378 0-236.447 106.069-236.447 236.447s106.069 236.447 236.447 236.447 236.447-106.069 236.447-236.447-106.069-236.447-236.447-236.447z" />
<glyph unicode="&#xe942;" glyph-name="shopping-bag" d="M895.976 680.608c-0.312 4.168-3.8 7.392-7.976 7.392h-144v40c0 127.928-104.080 232-232 232s-232-104.072-232-232v-40h-144c-4.176 0-7.664-3.224-7.976-7.392l-56-736c-0.168-2.216 0.592-4.408 2.112-6.040 1.512-1.64 3.64-2.568 5.864-2.568h864c2.224 0 4.352 0.928 5.864 2.56s2.28 3.824 2.112 6.040l-56 736.008zM344 728c0 92.632 75.36 168 168 168s168-75.368 168-168v-40h-336v40zM312 464c-44.12 0-80 35.888-80 80 0 31.928 16 60.696 48 73.32v-73.32c0-17.648 14.36-32 32-32s32 14.352 32 32v73.272c32-12.624 48-41.608 48-73.272 0-44.112-35.88-80-80-80zM712 464c-44.12 0-80 35.888-80 80 0 31.928 16 60.696 48 73.32v-73.32c0-17.648 14.36-32 32-32s32 14.352 32 32v73.272c32-12.624 48-41.608 48-73.272 0-44.112-35.88-80-80-80z" />
<glyph unicode="&#xe943;" glyph-name="shopping-cart" d="M259.4 41.4c0-45.8 37.6-83.4 81.4-83.4s81.4 37.6 81.4 83.4-35.6 83.4-81.4 83.4c-43.8 0-81.4-37.6-81.4-83.4zM301.2 41.6c0 23 18.8 41.8 39.6 41.8s39.6-18.8 39.6-41.8-16.6-41.8-39.6-41.8c-20.8 0-39.6 18.8-39.6 41.8zM703.6 41.4c0-45.8 35.6-83.4 81.4-83.4 43.8 0 81.4 37.6 81.4 83.4s-35.6 83.4-81.4 83.4c-43.8 0-81.4-37.6-81.4-83.4zM745.4 41.6c0 23 16.6 41.8 39.6 41.8 20.8 0 39.6-18.8 39.6-41.8s-16.6-41.8-39.6-41.8c-21 0-39.6 18.6-39.6 41.8zM144.8 938h-116.6v-41.6h83.4l148-573.4h569.2c33.4 0 62.6-29.2 62.6-66.8s-27.2-66.8-62.6-66.8h-567.2v-39.6h567.2c58.4 0 104.2 48 104.2 108.4 0 55-37.8 97.8-88.4 105.2l151 447.4h-818.4l-32.4 127.2zM290.8 364.6l-102.2 404.6h748.6l-135.6-404.6h-510.8zM689 671.2h41.8v-235.6h-41.8v235.6zM540.8 671.2h41.8v-235.6h-41.8v235.6zM392.8 671.2h41.8v-235.6h-41.8v235.6z" />
<glyph unicode="&#xe944;" glyph-name="star" d="M536.206 920.156l130.254-308.288 333.466-28.647c23.128-1.997 32.537-30.855 14.981-46.046l-252.938-219.139 75.797-326.002c5.256-22.655-19.291-40.474-39.16-28.437l-286.579 172.831-286.579-172.831c-19.922-11.985-44.417 5.835-39.16 28.437l75.797 326.002-252.991 219.192c-17.556 15.191-8.2 44.049 14.981 46.046l333.466 28.647 130.254 308.236c9.041 21.446 39.37 21.446 48.411 0z" />
<glyph unicode="&#xe945;" glyph-name="support" d="M619.174 257.053h-215.283c-176.907 0-321.053-144.146-321.053-321.053h858.325c-0.936 175.971-145.082 321.053-321.989 321.053zM549.909 404.007c16.848 0 32.761-5.616 44.929-15.912h77.689c38.377 40.249 61.777 93.601 61.777 153.506 0 123.554-100.154 222.771-222.771 222.771s-222.771-99.218-222.771-222.771c0-83.305 45.865-156.314 114.194-194.691 7.488 32.761 36.505 57.097 70.201 57.097h76.753zM182.055 522.881c2.808-23.4 14.040-44.929 29.952-60.841 12.168-12.168 28.080-21.528 45.865-27.144-0.936 3.744-0.936 7.488-0.936 10.296v181.587c0 3.744 0 7.488 0.936 11.232-17.784-4.68-32.761-14.040-45.865-27.144-0.936-0.936-2.808-2.808-3.744-3.744v7.488c0 17.784 1.872 35.569 4.68 52.417 2.808 17.784 7.488 34.633 14.040 50.545 5.616 16.848 13.104 32.761 22.464 47.737 8.424 14.976 18.72 29.952 29.952 43.057 0.936 0.936 1.872 2.808 1.872 3.744 8.424-0.936 16.848 1.872 22.464 7.488 57.097 57.097 131.978 85.177 205.923 85.177s149.762-28.080 205.923-85.177c6.552-6.552 14.976-8.424 22.464-7.488 0.936-0.936 0.936-2.808 1.872-3.744 11.232-13.104 21.528-28.080 29.952-43.057s15.912-30.888 22.464-47.737c5.616-16.848 10.296-33.697 14.040-51.481 2.808-16.848 4.68-34.633 4.68-52.417v-7.488c-0.936 1.872-2.808 2.808-3.744 3.744-12.168 12.168-28.080 21.528-45.865 27.144 0.936-3.744 0.936-7.488 0.936-11.232v-180.651c0-3.744 0-7.488-0.936-10.296 4.68 0.936 9.36 2.808 14.040 4.68v-58.969c0-6.552-0.936-13.104-1.872-17.784s-2.808-7.488-4.68-10.296c-1.872-1.872-4.68-3.744-7.488-4.68-3.744-0.936-7.488-1.872-12.168-1.872h-173.163c-5.616 9.36-14.976 15.912-27.144 15.912h-76.753c-16.848 0-29.952-14.040-29.952-29.952 0.936-16.848 14.040-29.952 30.888-29.952h76.753c11.232 0 21.528 6.552 27.144 15.912h180.651c6.552 0 12.168 1.872 17.784 3.744 7.488 2.808 13.104 6.552 18.72 12.168 4.68 5.616 8.424 12.168 11.232 20.592 1.872 7.488 3.744 16.848 3.744 27.144v77.689c0.936 0.936 1.872 1.872 2.808 2.808 15.912 15.912 27.144 37.441 29.952 60.841 0.936 0.936 1.872 0.936 1.872 1.872 2.808 2.808 4.68 7.488 4.68 11.232v77.689c0 19.656-1.872 39.313-4.68 58.033-5.616 19.656-10.296 38.377-16.848 57.097s-14.976 36.505-25.272 53.353c-9.36 16.848-20.592 32.761-33.697 47.737-0.936 1.872-2.808 2.808-4.68 3.744 1.872 8.424-0.936 18.72-7.488 25.272-67.393 67.393-155.378 101.090-244.3 101.090s-176.907-33.697-245.236-101.090c-6.552-6.552-9.36-16.848-7.488-25.272-1.872-0.936-2.808-1.872-4.68-3.744-13.104-14.976-24.336-30.888-33.697-47.737s-17.784-34.633-25.272-53.353c-6.552-18.72-12.168-37.441-14.976-57.097-3.744-18.72-4.68-38.377-4.68-58.033v-77.689c0-4.68 1.872-8.424 4.68-11.232 0.936-0.936 1.872-0.936 1.872-1.872z" />
<glyph unicode="&#xe946;" glyph-name="tag" d="M1024 890.24c0.078 18.698-7.138 36.252-20.318 49.432s-30.768 20.384-49.43 20.316c-18.644-0.078-36.196-7.404-49.422-20.628-5.6-5.6-15.786-17.696-21.358-24.41-5.852-7.050-4.884-17.51 2.166-23.36 7.048-5.852 17.508-4.884 23.36 2.166 8.728 10.512 15.942 18.79 19.292 22.142 6.996 6.994 16.264 10.87 26.1 10.912 0.054 0 0.104 0 0.158 0 9.724 0 18.838-3.76 25.674-10.598 6.874-6.874 10.64-16.048 10.598-25.832-0.042-9.834-3.918-19.102-10.912-26.1-6.262-6.262-27.786-23.336-58.624-44.878-18.242 31.188-52.074 52.198-90.74 52.198h-242.928c-32.792 0-63.62-12.77-86.81-35.956l-485.58-485.586c-9.818-9.818-15.226-22.872-15.226-36.756s5.408-26.94 15.226-36.756l325.334-325.334c10.136-10.134 23.444-15.2 36.756-15.2s26.624 5.068 36.756 15.2l485.584 485.582c23.186 23.188 35.956 54.016 35.956 86.81v242.926c0 7.17-0.726 14.17-2.102 20.94 35.102 24.154 60.87 44.36 69.858 53.348 13.228 13.224 20.554 30.776 20.632 49.422zM902.434 523.604c0-23.93-9.32-46.428-26.238-63.346l-485.584-485.586c-7.328-7.33-19.26-7.33-26.59 0l-325.334 325.334c-3.55 3.55-5.508 8.272-5.508 13.296s1.956 9.744 5.508 13.294l485.582 485.582c16.922 16.92 39.418 26.238 63.346 26.238h242.926c27.28 0 51.060-15.274 63.236-37.718-19.596-12.976-41.538-26.774-64.816-40.342-0.726 0.796-1.468 1.584-2.238 2.354-27.168 27.168-71.372 27.168-98.54 0s-27.168-71.372 0-98.54c13.584-13.584 31.428-20.374 49.27-20.374s35.686 6.79 49.27 20.374c18.134 18.134 24.144 43.852 18.072 67.034 20.246 11.786 39.688 23.832 57.63 35.486 0.002-0.056 0.006-0.108 0.006-0.162v-242.924zM762.638 705.986c2.914-5.794 8.762-9.138 14.834-9.138 2.506 0 5.052 0.57 7.444 1.774 9.724 4.892 19.414 9.98 29.008 15.192 0.096-9.47-3.444-18.97-10.656-26.182-14.232-14.23-37.384-14.23-51.616 0-14.23 14.232-14.23 37.384 0 51.616 7.116 7.116 16.462 10.672 25.808 10.672 7.4 0 14.778-2.268 21.072-6.726-9.39-5.104-18.92-10.102-28.526-14.936-8.19-4.114-11.488-14.088-7.368-22.272zM494.324 622.076c-9.162 0-16.59-7.426-16.59-16.59v-350.358c0-9.162 7.428-16.59 16.59-16.59s16.59 7.428 16.59 16.59v350.358c0 9.164-7.428 16.59-16.59 16.59zM418.462 479.574c-27.166 27.172-71.372 27.17-98.536 0.002-27.168-27.168-27.168-71.372 0-98.54 13.586-13.586 31.426-20.376 49.27-20.374 17.84 0 35.686 6.794 49.268 20.374 13.162 13.162 20.41 30.658 20.41 49.27s-7.25 36.11-20.412 49.268zM395.002 404.5c-14.232-14.232-37.384-14.23-51.614 0-14.23 14.232-14.23 37.384 0 51.616 7.116 7.116 16.462 10.672 25.808 10.672s18.692-3.556 25.808-10.672c6.894-6.894 10.69-16.058 10.69-25.808-0.002-9.75-3.798-18.914-10.692-25.808zM668.72 479.576c-27.168 27.17-71.374 27.168-98.536 0-27.168-27.168-27.168-71.372 0-98.54 13.584-13.584 31.426-20.374 49.27-20.374 17.842 0 35.686 6.79 49.268 20.374 27.166 27.168 27.166 71.372-0.002 98.54zM645.258 404.5c-14.232-14.232-37.384-14.23-51.614 0-14.23 14.232-14.23 37.384 0 51.616 7.116 7.116 16.462 10.672 25.808 10.672s18.692-3.556 25.808-10.672c14.23-14.232 14.23-37.384-0.002-51.616z" />
<glyph unicode="&#xe947;" glyph-name="thank-you" d="M512 960c-282.309 0-512-229.671-512-512s229.691-512 512-512 512 229.671 512 512-229.691 512-512 512zM512-24.615c-260.588 0-472.615 212.027-472.615 472.615s212.027 472.615 472.615 472.615 472.615-212.027 472.615-472.615-212.027-472.615-472.615-472.615zM753.27 657.999l-302.651-340.48-182.331 145.861c-8.468 6.794-20.894 5.396-27.668-3.072-6.794-8.507-5.415-20.894 3.072-27.687l196.923-157.538c3.623-2.895 7.975-4.313 12.308-4.313 5.435 0 10.85 2.245 14.73 6.617l315.077 354.462c7.227 8.113 6.498 20.578-1.634 27.786-8.153 7.247-20.578 6.518-27.825-1.634z" />
<glyph unicode="&#xe948;" glyph-name="trash" d="M928 928h-288c0 17.696-14.304 32-32 32h-192c-17.696 0-32-14.304-32-32h-288c-52.928 0-96-43.072-96-96v-64c0-17.664 14.304-32 32-32h96v-704c0-52.928 43.072-96 96-96h576c52.928 0 96 43.072 96 96v704h96c17.696 0 32 14.336 32 32v64c0 52.928-43.072 96-96 96zM832 32c0-17.632-14.336-32-32-32h-576c-17.664 0-32 14.368-32 32v704h640v-704zM960 800h-896v32c0 17.664 14.336 32 32 32h832c17.664 0 32-14.336 32-32v-32zM320 64c17.696 0 32 14.336 32 32v480c0 17.696-14.304 32-32 32s-32-14.304-32-32v-480c0-17.664 14.304-32 32-32zM448 64c17.696 0 32 14.336 32 32v480c0 17.696-14.304 32-32 32s-32-14.304-32-32v-480c0-17.664 14.304-32 32-32zM576 64c17.696 0 32 14.336 32 32v480c0 17.696-14.304 32-32 32s-32-14.304-32-32v-480c0-17.664 14.304-32 32-32zM704 64c17.696 0 32 14.336 32 32v480c0 17.696-14.304 32-32 32s-32-14.304-32-32v-480c0-17.664 14.304-32 32-32z" />
<glyph unicode="&#xe949;" glyph-name="wishlist-2" d="M854.794 960h-685.588c-0.41 0.017-0.89 0.027-1.373 0.027-18.595 0-33.78-14.604-34.709-32.968l-0.003-0.083v-957.716c0-29.696 37.888-44.585 61.338-23.112l317.542 290.652 317.542-290.652c18.043-16.517 61.338-11.561 61.338 23.112v957.716c-0.933 18.447-16.118 33.051-34.713 33.051-0.483 0-0.963-0.010-1.442-0.029l0.069 0.002z" />
<glyph unicode="&#xe94a;" glyph-name="wishlist" d="M822.364 960h-620.739c-18.074-0.156-32.666-14.845-32.666-32.941 0-0.026 0-0.051 0-0.077v0.004-957.716c-0.011-0.31-0.017-0.674-0.017-1.039 0-17.764 14.4-32.164 32.164-32.164 9.211 0 17.517 3.871 23.38 10.076l0.014 0.015 287.498 290.652 287.488-290.662c16.384-16.507 55.542-11.561 55.542 23.112v957.727c0 0.022 0 0.047 0 0.073 0 18.096-14.592 32.784-32.651 32.941h-0.015zM789.699 48.527l-254.833 257.649c-5.735 6.104-13.859 9.906-22.871 9.906s-17.136-3.802-22.856-9.89l-0.015-0.016-254.833-257.618v845.404h555.397v-845.404z" />
<glyph unicode="&#xe94b;" glyph-name="instagram-social-network-logo-of-photo-camera" d="M131.434 960h761.132c72.283 0 131.424-53.516 131.424-131.424v-761.153c0-77.908-59.141-131.424-131.424-131.424h-761.132c-72.304 0-131.434 53.516-131.434 131.424v761.153c0 77.908 59.13 131.424 131.434 131.424v0zM745.939 846.229c-25.359 0-46.082-20.733-46.082-46.103v-110.343c0-25.359 20.723-46.103 46.082-46.103h115.737c25.359 0 46.103 20.744 46.103 46.103v110.343c0 25.37-20.744 46.103-46.103 46.103h-115.737zM908.263 526.954h-90.125c8.527-27.841 13.142-57.332 13.142-87.844 0-170.325-142.526-308.393-318.308-308.393-175.771 0-318.276 138.068-318.276 308.393 0 30.532 4.605 60.013 13.142 87.844h-94.047v-432.552c0-22.384 18.315-40.71 40.71-40.71h713.073c22.395 0 40.71 18.315 40.71 40.71v432.552h-0.021zM512.962 649.493c-113.571 0-205.652-89.21-205.652-199.27s92.081-199.27 205.652-199.27c113.582 0 205.673 89.21 205.673 199.27s-92.081 199.27-205.673 199.27z" />
<glyph unicode="&#xe94c;" glyph-name="pinterest-social-logo" d="M512 960c-282.76 0-512-229.229-512-512s229.24-512 512-512 512 229.229 512 512-229.24 512-512 512zM570.915 277.937c-47.361 0-91.903 25.603-107.156 54.673 0 0-25.477-101.038-30.83-120.533-18.992-68.93-74.859-137.881-79.207-143.528-3.027-3.928-9.721-2.703-10.413 2.514-1.184 8.779-15.452 95.737 1.33 166.658 8.391 35.617 56.391 238.993 56.391 238.993s-13.975 28.002-13.975 69.402c0 65.002 37.671 113.525 84.581 113.525 39.881 0 59.135-29.95 59.135-65.85 0-40.101-25.519-100.064-38.687-155.627-11.010-46.523 23.308-84.476 69.192-84.476 83.104 0 139.034 106.726 139.034 233.2 0 96.104-64.698 168.072-182.466 168.072-133.010 0-215.957-99.215-215.957-210.059 0-38.194 11.293-65.169 28.955-86.006 8.098-9.585 9.25-13.44 6.306-24.44-2.127-8.077-6.914-27.499-8.946-35.177-2.923-11.125-11.911-15.085-21.978-10.989-61.241 25.006-89.798 92.113-89.798 167.548 0 124.588 105.061 273.982 313.454 273.982 167.454 0 277.669-121.162 277.669-251.249 0.010-172.095-95.664-300.632-236.636-300.632z" />
<glyph unicode="&#xe94d;" glyph-name="twitter-logo-silhouette" d="M1024 765.477c-37.689-16.7-78.129-28.026-120.618-33.083 43.384 25.98 76.594 67.187 92.334 116.139-40.696-24.059-85.616-41.529-133.48-50.999-38.328 40.888-92.846 66.356-153.316 66.356-116.010 0-210.072-94.062-210.072-210.009 0-16.444 1.856-32.505 5.44-47.864-174.559 8.768-329.345 92.399-432.941 219.481-18.109-30.971-28.411-67.059-28.411-105.581 0-72.883 37.113-137.191 93.423-174.815-34.426 1.151-66.804 10.621-95.15 26.363v-2.624c0-101.741 72.435-186.652 168.48-205.978-17.597-4.735-36.153-7.359-55.35-7.359-13.565 0-26.683 1.344-39.544 3.904 26.746-83.505 104.301-144.228 196.188-145.893-71.859-56.31-162.466-89.776-260.879-89.776-16.956 0-33.658 1.024-50.102 2.88 92.975-59.702 203.354-94.511 321.988-94.511 386.423 0 597.648 320.069 597.648 597.648l-0.704 27.195c41.271 29.437 76.976 66.421 105.067 108.526z" />
<glyph unicode="&#xe94e;" glyph-name="youtube" d="M980.48 732.16c-27.776 49.408-57.92 58.496-119.296 61.952-61.312 4.16-215.488 5.888-349.056 5.888-133.824 0-288.064-1.728-349.312-5.824-61.248-3.52-91.456-12.544-119.488-62.016-28.608-49.344-43.328-134.336-43.328-283.968 0-0.128 0-0.192 0-0.192 0-0.128 0-0.192 0-0.192v-0.128c0-148.992 14.72-234.624 43.328-283.456 28.032-49.408 58.176-58.368 119.424-62.528 61.312-3.584 215.552-5.696 349.376-5.696 133.568 0 287.744 2.112 349.12 5.632 61.376 4.16 91.52 13.12 119.296 62.528 28.864 48.832 43.456 134.464 43.456 283.456 0 0 0 0.192 0 0.32 0 0 0 0.128 0 0.192 0 149.696-14.592 234.688-43.52 284.032zM384 256v384l320-192-320-192z" />
<glyph unicode="&#xe94f;" glyph-name="facebook-letter-logo" d="M376.354 761.682c0-25.805 0-140.984 0-140.984h-103.289v-172.396h103.289v-512.3h212.178v512.286h142.382c0 0 13.335 82.663 19.798 173.046-18.532 0-161.378 0-161.378 0s0 100.294 0 117.874c0 17.618 23.134 41.316 45.999 41.316 22.822 0 70.99 0 115.603 0 0 23.472 0 104.573 0 179.474-59.557 0-127.314 0-157.18 0-222.647 0.012-217.402-172.555-217.402-198.315z" />
<glyph unicode="&#xe950;" glyph-name="left-arrow" d="M703.305-2.878c6.35-6.35 14.288-9.526 23.020-9.526s16.67 3.175 23.020 9.526c12.701 12.701 12.701 33.34 0 46.040l-404.837 404.837 404.837 404.837c12.701 12.701 12.701 33.34 0 46.040s-33.34 12.701-46.040 0l-428.651-427.857c-12.701-12.701-12.701-33.34 0-46.040l428.651-427.857z" />
<glyph unicode="&#xe951;" glyph-name="right-arrow_new" d="M320.695-2.878c-6.35-6.35-14.288-9.526-23.020-9.526s-16.67 3.175-23.020 9.526c-12.701 12.701-12.701 33.34 0 46.040l404.837 404.837-404.837 404.837c-12.701 12.701-12.701 33.34 0 46.040s33.34 12.701 46.040 0l427.857-427.857c12.701-12.701 12.701-33.34 0-46.040l-427.857-427.857z" />
<glyph unicode="&#xe952;" glyph-name="plus_new" d="M1024 472.381h-487.619v487.619h-48.762v-487.619h-487.619v-48.762h487.619v-487.619h48.762v487.619h487.619z" />
<glyph unicode="&#xe953;" glyph-name="minus_new" d="M0 481.758h1024v-67.516h-1024v67.516z" />
<glyph unicode="&#xe954;" glyph-name="add_new" d="M512 960c-282.312 0-512-229.688-512-512s229.688-512 512-512 512 229.688 512 512-229.688 512-512 512zM512-21.334c-258.792 0-469.334 210.542-469.334 469.334s210.542 469.334 469.334 469.334 469.334-210.542 469.334-469.334-210.542-469.334-469.334-469.334zM789.334 469.334h-256v256c0 11.792-9.542 21.334-21.334 21.334s-21.334-9.542-21.334-21.334v-256h-256c-11.792 0-21.334-9.542-21.334-21.334s9.542-21.334 21.334-21.334h256v-256c0-11.792 9.542-21.334 21.334-21.334s21.334 9.542 21.334 21.334v256h256c11.792 0 21.334 9.542 21.334 21.334s-9.542 21.334-21.334 21.334z" />
<glyph unicode="&#xe955;" glyph-name="add-circule" d="M535.273 145.455v279.273h279.273v46.545h-279.273v279.273h-46.545v-279.273h-279.273v-46.545h279.273v-279.273zM1024 448c0 282.765-229.237 512-512 512-282.765 0-512-229.235-512-512 0-282.763 229.235-512 512-512 282.763 0 512 229.237 512 512zM46.545 448c0 257.071 208.384 465.455 465.455 465.455s465.455-208.384 465.455-465.455-208.384-465.455-465.455-465.455-465.455 208.384-465.455 465.455z" />
<glyph unicode="&#xe956;" glyph-name="word" d="M388.412 811.662c-2.912 8.009-8.373 12.013-16.381 12.013h-140.876c-8.009 0-13.469-4.004-16.381-12.013l-214.046-703.295c-1.456-6.552-0.728-11.279 2.184-14.192 2.912-4.368 7.645-6.558 14.197-6.558h126.68c8.737 0 14.197 4.004 16.381 12.013l36.038 126.68h210.772l36.038-126.68c2.184-8.009 7.28-12.013 15.289-12.013h128.859c4.368 0 8.196 1.458 11.472 4.368s4.914 6.916 4.914 12.013c0 1.453-0.73 4.365-2.189 8.737l-212.952 698.926zM228.971 362.82l72.077 257.729 73.169-257.729h-145.246zM972.671 565.946c-34.218 31.306-82.268 46.959-144.148 46.959-38.587 0-74.261-6.37-107.025-19.109-32.764-12.741-61.52-31.488-86.274-56.242-5.83-5.824-6.916-12.377-3.276-19.657l40.407-69.891c2.186-4.367 6.187-7.28 12.013-8.737 5.093-1.458 9.829 0 14.197 4.368 33.49 34.218 70.619 51.327 111.391 51.327 52.418 0 78.626-25.119 78.626-75.353v-31.67c-30.576 24.026-68.435 36.033-113.572 36.033-20.385 0-40.589-3.456-60.61-10.371-20.025-6.916-37.864-17.473-53.512-31.67-15.655-14.197-28.394-32.4-38.223-54.609-9.829-22.202-14.743-48.228-14.743-78.083 0-29.117 4.727-54.604 14.192-76.445 9.47-21.841 22.205-40.225 38.228-55.15 16.015-14.921 33.852-26.21 53.506-33.854 19.661-7.645 40.043-11.467 61.156-11.467s41.497 3.276 61.154 9.829c19.663 6.552 37.136 16.015 52.419 28.394v-9.829c0-4.368 1.638-8.196 4.914-11.472 3.282-3.276 7.1-4.914 11.472-4.914h102.649c4.368 0 8.194 1.638 11.472 4.914 3.276 3.276 4.914 7.1 4.914 11.472v331.994c0.002 57.516-17.107 101.927-51.329 133.233zM888.583 212.116c-16.017-24.754-41.499-37.136-76.445-37.136-21.113 0-37.857 6.734-50.23 20.203-12.38 13.469-18.565 31.126-18.565 52.971 0 21.836 6.187 39.673 18.565 53.506 12.375 13.833 29.117 20.749 50.23 20.749 10.193 0 22.937-2.364 38.223-7.098 15.289-4.734 28.030-15.471 38.223-32.216v-70.979z" />
<glyph unicode="&#xe957;" glyph-name="more-button-interface-symbol-of-three-horizontal-aligned-dots" d="M232.726 448c0-64.265-52.097-116.363-116.363-116.363s-116.363 52.097-116.363 116.363c0 64.265 52.097 116.363 116.363 116.363s116.363-52.097 116.363-116.363zM628.363 448c0-64.265-52.097-116.363-116.363-116.363s-116.363 52.097-116.363 116.363c0 64.265 52.097 116.363 116.363 116.363s116.363-52.097 116.363-116.363zM1024 448c0-64.265-52.097-116.363-116.363-116.363s-116.363 52.097-116.363 116.363c0 64.265 52.097 116.363 116.363 116.363s116.363-52.097 116.363-116.363z" />
<glyph unicode="&#xe958;" glyph-name="information-symbol" d="M418.91 727.273h186.201c12.596 0 23.501 4.603 32.725 13.816 9.196 9.206 13.809 20.118 13.809 32.725v139.637c0 12.604-4.613 23.509-13.827 32.733-9.208 9.201-20.129 13.816-32.727 13.816h-186.183c-12.599 0-23.509-4.616-32.725-13.816-9.208-9.213-13.816-20.129-13.816-32.733v-139.637c0-12.606 4.608-23.519 13.816-32.725 9.216-9.213 20.126-13.816 32.727-13.816zM730.905 108.367c-9.203 9.213-20.116 13.824-32.725 13.824h-46.549v418.905c0 12.601-4.603 23.509-13.809 32.72-9.221 9.213-20.134 13.822-32.725 13.822h-279.271c-12.606 0-23.514-4.608-32.725-13.822-9.216-9.211-13.816-20.118-13.816-32.72v-93.095c0-12.599 4.603-23.514 13.816-32.72 9.208-9.224 20.118-13.827 32.725-13.827h46.549v-279.266h-46.549c-12.606 0-23.514-4.611-32.725-13.824-9.216-9.206-13.816-20.118-13.816-32.725v-93.093c0-12.604 4.603-23.516 13.816-32.743 9.208-9.196 20.118-13.809 32.725-13.809h372.353c12.606 0 23.519 4.613 32.725 13.809 9.206 9.224 13.809 20.136 13.809 32.743v93.093c0 12.609-4.577 23.522-13.809 32.727z" />
<glyph unicode="&#xe959;" glyph-name="add-page" d="M874.465 341.223h-27.793v27.793c0 40.33-19.096 76.261-48.698 99.297v287.885c0 10.878-4.316 21.306-12.012 28.987l-162.8 162.814c-7.701 7.682-18.112 12.001-28.99 12.001h-489.95c-44.387 0-80.497-36.116-80.497-80.503v-862.998c0-44.392 36.108-80.5 80.497-80.5h616.64c69.373 0 125.81 56.437 125.81 125.81v27.793h27.793c69.373 0 125.81 56.437 125.81 125.81s-56.437 125.81-125.81 125.81zM111.141 25.628v844.742h426.080v-120.498c0-29.184 23.656-52.831 52.829-52.831h120.506v-202.671c-64.567-5.262-115.504-59.454-115.504-125.354v-27.793h-27.793c-69.373 0-125.81-56.437-125.81-125.81s56.437-125.81 125.81-125.81h27.793v-27.793c0-12.576 1.875-24.718 5.326-36.182h-489.237zM874.092 160.297h-96.922v-96.922c0-31.255-25.426-56.681-56.681-56.681s-56.681 25.426-56.681 56.681v96.922h-96.919c-31.255 0-56.681 25.426-56.681 56.681s25.426 56.681 56.681 56.681h96.922v96.922c0 31.255 25.426 56.681 56.681 56.681s56.681-25.426 56.681-56.681v-96.922h96.922c31.255 0 56.681-25.426 56.681-56.681-0.003-31.255-25.429-56.681-56.683-56.681z" />
<glyph unicode="&#xe95a;" glyph-name="paper" d="M711.732 960h-515.382c-34.605 0-62.784-28.199-62.784-62.797v-898.394c0-34.651 28.179-62.806 62.784-62.806h631.295c34.636 0 62.789 28.155 62.789 62.806v767.018l-178.703 194.174zM726.55 866.031l78.328-85.128h-78.328v85.128zM837.703-1.194c0-5.531-4.528-10.073-10.086-10.073h-631.267c-5.549 0-10.051 4.541-10.051 10.073v898.396c0 5.544 4.502 10.038 10.051 10.038h477.441v-152.715c0-14.54 11.844-26.328 26.393-26.328h137.52v-729.392zM279.321 679.534h447.792c10.908 0 19.756-8.848 19.756-19.756s-8.848-19.756-19.756-19.756h-447.792c-10.906 0-19.756 8.848-19.756 19.756 0 10.906 8.85 19.756 19.756 19.756zM746.87 527.017c0-10.906-8.848-19.756-19.756-19.756h-447.792c-10.906 0-19.756 8.848-19.756 19.756s8.85 19.756 19.756 19.756h447.792c10.908 0 19.756-8.85 19.756-19.756zM746.87 398.605c0-10.908-8.848-19.756-19.756-19.756h-447.792c-10.906 0-19.756 8.848-19.756 19.756s8.85 19.756 19.756 19.756h447.792c10.908 0 19.756-8.848 19.756-19.756zM746.87 268.005c0-10.908-8.848-19.756-19.756-19.756h-447.792c-10.906 0-19.756 8.848-19.756 19.756s8.85 19.756 19.756 19.756h447.792c10.908 0 19.756-8.848 19.756-19.756z" />
<glyph unicode="&#xe95b;" glyph-name="images" d="M463.797 489.766c56.406 0 102.305 45.891 102.305 102.297 0 56.414-45.898 102.305-102.305 102.305s-102.297-45.891-102.297-102.305c0-56.406 45.891-102.297 102.297-102.297zM463.797 634.367c23.328 0 42.305-18.977 42.305-42.305 0-23.32-18.977-42.297-42.305-42.297-23.32 0-42.297 18.977-42.297 42.297 0 23.328 18.977 42.305 42.297 42.305zM986.609 886h-949.219c-20.617 0-37.391-16.773-37.391-37.391v-803.453c0-20.617 16.773-37.391 37.391-37.391h949.219c20.617 0 37.391 16.773 37.391 37.391v803.453c0 20.617-16.773 37.391-37.391 37.391zM964 826v-474.813l-188.703 188.711c-12.305 12.281-32.313 12.273-44.609-0.023l-266.883-266.883-170.477 170.469c-5.961 5.969-13.891 9.258-22.328 9.258-8.43 0-16.352-3.281-22.313-9.242l-188.688-188.688v571.211zM60 67.766v102.172l211 211 170.469-170.469c5.969-5.969 13.898-9.266 22.336-9.266 8.422 0 16.352 3.289 22.305 9.25l266.891 266.891 211.008-211.008v-198.57z" />
<glyph unicode="&#xe95c;" glyph-name="full-box" d="M996.295 700.341l-479.946 259.659-488.644-261.547 0.923-1.67v-515.361l458.588-245.421v516.724l-404.581 216.463c99.266 53.127 413.942 221.648 433.584 232.149 19.599-10.679 331.417-179.375 426.992-231.051l-406.472-217.561v-516.724l458.676 245.421v516.767l-0.44-0.175 1.32 2.328zM523.294 853.174l-342.271-185.175 133.718-67.364 338.185 186.010-129.632 66.529zM708.511 758.215l-337.7-185.702 148.176-74.659 340.205 183.021-150.682 77.34z" />
<glyph unicode="&#xe95d;" glyph-name="paper-1" d="M64 64v768c0 35.312 28.752 64 64 64h640c35.312 0 64-28.688 64-64v-376.248l64 64v312.248c0 70.688-57.312 128-128 128h-640c-70.688 0-128-57.312-128-128v-768c0-70.688 57.312-128 128-128h352v64h-352c-35.248 0-64 28.688-64 64zM704 768h-512v-64h512v64zM704 640h-512v-64h512v64zM704 512h-512v-64h512v64zM192 320h256v64h-256v-64zM1005.248 384l-45.248 45.248c-12.504 12.504-28.872 18.752-45.248 18.752s-32.752-6.248-45.248-18.752l-274.752-274.752c-12.504-12.496-50.752-60.84-50.752-77.216l-32-141.28 141.248 32c0 0 64.752 38.248 77.248 50.752l274.752 274.752c25 24.992 25 65.528 0 90.496zM707.936 41.44c-3.624-3.44-16.16-11.904-31.472-21.656l-82.904 82.904c8.504 11.656 17.968 23.376 23.816 29.184l206.872 206.872 90.504-90.504-206.816-206.8z" />
<glyph unicode="&#xe95e;" glyph-name="menu" d="M1024 832c0 25.6-17.067 42.667-42.667 42.667h-938.667c-25.6 0-42.667-17.067-42.667-42.667v-85.333c0-25.6 17.067-42.667 42.667-42.667h938.667c25.6 0 42.667 17.067 42.667 42.667v85.333zM1024 490.667c0 25.6-17.067 42.667-42.667 42.667h-938.667c-25.6 0-42.667-17.067-42.667-42.667v-85.333c0-25.6 17.067-42.667 42.667-42.667h938.667c25.6 0 42.667 17.067 42.667 42.667v85.333zM1024 149.333c0 25.6-17.067 42.667-42.667 42.667h-938.667c-25.6 0-42.667-17.067-42.667-42.667v-85.333c0-25.6 17.067-42.667 42.667-42.667h938.667c25.6 0 42.667 17.067 42.667 42.667v85.333z" />
<glyph unicode="&#xe95f;" glyph-name="pic" d="M1024 714.103l-245.892 245.897h-778.108v-1024h1024v778.103zM809.677 833.573l93.848-93.848h-93.848v93.848zM956.928 3.072h-889.855v96.803l354.076 341.368 187.316-187.311 95.261 95.261 253.203-237.66v-108.461zM956.928 203.525l-254.679 239.046-93.785-93.785-186.453 186.457-354.939-342.199v699.883h675.532v-220.275h214.323v-469.127z" />
<glyph unicode="&#xe960;" glyph-name="three-side-banner" d="M939.020 959.987h-534.878c-46.863 0-84.976-38.124-84.976-84.968v-74.597h-74.624c-46.863 0-84.976-38.128-84.976-84.974v-74.631h-74.593c-46.867 0-84.972-38.128-84.972-84.968v-534.872c0-46.839 38.105-84.968 84.972-84.968h534.884c46.85 0 84.964 38.128 84.964 84.968v74.618h74.641c46.858 0 84.968 38.128 84.968 84.972v74.618h74.593c46.867 0 84.98 38.122 84.98 84.968v534.865c-0.002 46.846-38.114 84.968-84.983 84.968zM71.994 555.85c0 7.152 5.836 12.973 12.976 12.973h534.884c7.135 0 12.976-5.821 12.976-12.973v-383.333l-163.085 12.108-74.744 85.729c-9.562 10.895-25.953 12.353-37.196 3.357l-60.779-48.48-67.847 152.365c-4.088 9.137-12.904 15.291-22.896 15.958-10.092 0.723-19.512-4.271-24.782-12.779l-109.507-177.746v352.822zM632.832 103.488h-558.729l126.527 205.396 61.238-137.511c3.418-7.628 10.163-13.254 18.288-15.241 8.047-1.984 16.662-0.103 23.235 5.115l67.887 54.14 65.069-74.618c4.673-5.344 11.284-8.646 18.353-9.174l178.136-13.233v-14.874zM632.832 20.978c0-7.154-5.84-12.971-12.976-12.971h-534.884c-7.14 0-12.976 5.817-12.976 12.971v28.512h560.835v-28.512zM792.426 180.568c0-7.16-5.832-12.971-12.967-12.971h-74.641v388.253c0 46.839-38.114 84.968-84.964 84.968h-388.282v74.633c0 7.158 5.828 12.971 12.969 12.971h534.92c7.133 0 12.967-5.815 12.967-12.971v-534.882zM951.999 340.154c0-7.152-5.836-12.971-12.978-12.971h-74.593v388.268c0 46.844-38.107 84.974-84.968 84.974h-388.293v74.595c0 7.152 5.836 12.971 12.973 12.971h534.878c7.142 0 12.978-5.819 12.978-12.971v-534.865zM460.713 342.405c46.427 0 84.123 37.648 84.123 84.109 0 46.435-37.695 84.090-84.123 84.090-46.439 0-84.132-37.653-84.132-84.090 0-46.46 37.69-84.109 84.132-84.109z" />
<glyph unicode="&#xe961;" glyph-name="two-side-banner" d="M924.973 716.238h-22.999v22.997c0 54.14-44.043 98.184-98.182 98.184h-704.764c-54.14 0-98.184-44.046-98.184-98.184v-461.29c0-54.138 44.046-98.184 98.184-98.184h22.997v-22.997c0-54.14 44.046-98.184 98.184-98.184h704.761c54.14 0 98.186 44.044 98.186 98.184v461.29c-0.002 54.14-44.044 98.184-98.182 98.184zM950.808 156.765c0-14.27-11.568-25.838-25.836-25.838h-704.762c-14.27 0-25.838 11.568-25.838 25.838v461.289c0 14.272 11.568 25.838 25.838 25.838h704.764c14.268 0 25.836-11.568 25.836-25.838v-461.289zM73.19 277.946v461.289c0 14.27 11.568 25.838 25.838 25.838h704.764c14.268 0 25.836-11.568 25.836-25.838v-22.997h-609.419c-54.138 0-98.184-44.046-98.184-98.184v-365.945h-22.996c-14.272 0-25.84 11.568-25.84 25.838zM924.97 57.737h-704.762c-54.604 0-99.028 44.424-99.028 99.028v22.153h-22.151c-54.604 0-99.028 44.424-99.028 99.028v461.289c0 54.604 44.424 99.028 99.028 99.028h704.764c54.602 0 99.027-44.424 99.027-99.028v-22.153h22.155c54.602 0 99.027-44.424 99.027-99.028v-461.289c-0.002-54.604-44.424-99.028-99.030-99.028zM99.028 836.576c-53.674 0-97.339-43.668-97.339-97.341v-461.29c0-53.672 43.666-97.339 97.339-97.339h23.842v-23.842c0-53.672 43.666-97.339 97.339-97.339h704.761c53.674 0 97.341 43.666 97.341 97.339v461.29c0 53.674-43.664 97.339-97.338 97.339h-23.843v23.842c0 53.674-43.664 97.339-97.338 97.339h-704.764zM924.973 130.083h-704.764c-14.712 0-26.682 11.97-26.682 26.682v461.289c0 14.712 11.97 26.682 26.682 26.682h704.764c14.712 0 26.681-11.97 26.681-26.682v-461.289c-0.002-14.712-11.97-26.682-26.681-26.682zM220.209 643.047c-13.782 0-24.993-11.213-24.993-24.993v-461.289c0-13.782 11.212-24.993 24.993-24.993h704.764c13.78 0 24.992 11.212 24.992 24.993v461.289c0 13.782-11.212 24.993-24.992 24.993h-704.764zM122.87 251.264h-23.84c-14.712 0-26.684 11.97-26.684 26.682v461.289c0 14.712 11.97 26.682 26.682 26.682h704.764c14.712 0 26.681-11.97 26.681-26.682v-23.842h-610.263c-53.674 0-97.339-43.666-97.339-97.339v-366.79zM99.028 764.23c-13.782 0-24.993-11.212-24.993-24.993v-461.29c0-13.78 11.213-24.993 24.995-24.993h22.153v365.101c0 54.604 44.424 99.028 99.028 99.028h608.574v22.153c0 13.782-11.212 24.993-24.992 24.993h-704.766zM847.811 238.060l-139.065 139.067c-10.090 10.092-26.449 10.092-36.539 0l-65.495-65.493-122.352 122.352c-10.090 10.092-26.451 10.092-36.539 0l-195.927-195.925c-6.029-6.029-8.452-14.294-7.279-22.124 0.792-5.276 3.215-10.355 7.279-14.417l14.618-14.616c3.852-3.852 8.619-6.228 13.601-7.14 3.085-0.564 6.252-0.564 9.335 0 4.983 0.91 9.751 3.286 13.603 7.14l144.768 144.768c10.090 10.092 26.451 10.092 36.539 0l144.768-144.768c3.852-3.852 8.619-6.228 13.603-7.14 3.084-0.564 6.25-0.564 9.334 0 4.983 0.91 9.749 3.286 13.603 7.14l14.618 14.616c4.060 4.063 6.485 9.141 7.277 14.417 1.174 7.831-1.246 16.094-7.277 22.124l-22.415 22.415 32.605 32.608 106.18-106.18c3.641-3.639 8.101-5.96 12.784-6.973 6.139-1.329 12.662-0.404 18.257 2.78 1.969 1.121 3.823 2.513 5.502 4.191l14.614 14.616c9.476 9.474 10.053 24.475 1.738 34.624-0.544 0.66-1.121 1.3-1.738 1.918zM647.397 178.494c-1.613 0-3.234 0.149-4.82 0.437-5.343 0.976-10.2 3.526-14.047 7.373l-144.77 144.77c-4.72 4.722-10.997 7.321-17.673 7.321s-12.953-2.599-17.673-7.321l-144.768-144.77c-3.845-3.847-8.704-6.397-14.047-7.373-3.17-0.578-6.468-0.578-9.639 0-5.343 0.976-10.2 3.526-14.047 7.373l-14.618 14.616c-4.065 4.063-6.664 9.212-7.517 14.888-1.251 8.346 1.559 16.887 7.517 22.845l195.927 195.925c5.039 5.039 11.74 7.816 18.867 7.816s13.827-2.776 18.867-7.816l121.755-121.755 64.899 64.897c5.039 5.039 11.738 7.816 18.867 7.816s13.827-2.776 18.867-7.816l139.065-139.067c0.615-0.615 1.219-1.28 1.793-1.976 8.722-10.646 7.951-26.017-1.793-35.759l-14.614-14.616c-1.685-1.685-3.597-3.141-5.681-4.328-3.997-2.276-8.554-3.479-13.179-3.479-0.002 0-0.002 0-0.002 0-1.905 0-3.813 0.203-5.671 0.606-5.009 1.082-9.574 3.572-13.203 7.201l-105.582 105.582-31.411-31.414 21.819-21.819c5.956-5.956 8.765-14.498 7.513-22.845-0.851-5.673-3.448-10.82-7.513-14.888l-14.618-14.616c-3.847-3.847-8.704-6.397-14.047-7.373-1.589-0.287-3.21-0.436-4.823-0.436zM466.090 340.084c7.127 0 13.827-2.776 18.867-7.816l144.77-144.77c3.604-3.604 8.153-5.992 13.157-6.905 2.969-0.544 6.063-0.544 9.031 0 5.004 0.914 9.553 3.302 13.157 6.905l14.618 14.616c3.806 3.81 6.24 8.631 7.039 13.946 1.172 7.821-1.459 15.82-7.039 21.402l-23.013 23.013 33.799 33.802 106.778-106.778c3.401-3.399 7.675-5.732 12.365-6.745 5.975-1.29 12.375-0.317 17.661 2.69 1.952 1.111 3.744 2.477 5.321 4.055l14.614 14.616c9.126 9.124 9.849 23.524 1.682 33.493-0.539 0.652-1.104 1.277-1.682 1.854l-139.065 139.067c-4.72 4.722-10.997 7.321-17.673 7.321s-12.953-2.599-17.673-7.321l-66.093-66.091-122.949 122.949c-4.72 4.722-10.997 7.321-17.673 7.321s-12.951-2.599-17.673-7.321l-195.925-195.925c-5.581-5.581-8.212-13.583-7.039-21.402 0.797-5.316 3.232-10.139 7.039-13.946l14.618-14.616c3.604-3.604 8.153-5.992 13.157-6.905 2.972-0.544 6.063-0.544 9.033 0 5.004 0.914 9.555 3.302 13.157 6.905l144.768 144.77c5.038 5.039 11.738 7.816 18.865 7.816zM829.628 598.663c-11.267 4.428-23.531 6.861-36.347 6.861-54.97 0-99.692-44.721-99.692-99.69s44.721-99.69 99.692-99.69c12.818 0 25.081 2.433 36.347 6.861 13.827 5.434 26.152 13.871 36.173 24.504 16.835 17.857 27.169 41.905 27.169 68.325 0 26.419-10.333 50.468-27.169 68.325-10.021 10.632-22.347 19.071-36.173 24.504zM793.276 478.49c-15.099 0-27.343 12.243-27.343 27.344s12.243 27.343 27.343 27.343c15.102 0 27.346-12.243 27.346-27.343 0.002-15.101-12.242-27.344-27.346-27.344zM793.28 405.302c-55.437 0-100.536 45.1-100.536 100.535s45.1 100.535 100.536 100.535c12.635 0 24.97-2.329 36.656-6.92 13.703-5.384 26.317-13.929 36.48-24.71 17.668-18.742 27.398-43.212 27.398-68.904s-9.731-50.163-27.398-68.904c-10.16-10.779-22.773-19.323-36.48-24.711-11.684-4.59-24.016-6.919-36.656-6.919zM793.28 604.682c-54.504 0-98.848-44.341-98.848-98.846s44.343-98.846 98.848-98.846c12.426 0 24.551 2.288 36.040 6.804 13.475 5.296 25.877 13.696 35.866 24.296 17.372 18.428 26.939 42.486 26.939 67.746s-9.567 49.32-26.939 67.746c-9.991 10.6-22.395 19.002-35.866 24.296-11.49 4.514-23.614 6.804-36.040 6.804zM793.276 477.646c-15.543 0-28.187 12.645-28.187 28.189s12.644 28.187 28.187 28.187c15.545 0 28.19-12.645 28.19-28.187 0.002-15.543-12.645-28.189-28.19-28.189zM793.276 532.334c-14.611 0-26.498-11.887-26.498-26.498 0-14.613 11.887-26.5 26.498-26.5 14.613 0 26.502 11.889 26.502 26.5 0.002 14.611-11.887 26.498-26.502 26.498z" />
<glyph unicode="&#xe962;" glyph-name="image-with-text" d="M457.799 291.599h-176.978c-6.412 0-11.595-3.864-11.595-8.702v-178.394c0-4.795 5.184-8.698 11.595-8.698h176.978c6.425 0 11.609 3.907 11.609 8.698v178.394c-0.022 4.838-5.205 8.702-11.609 8.702zM292.299 745.806c-15.459 0-27.933-3.597-27.933-8.046v-165.181c0-4.428 12.496-8.046 27.933-8.046h426.496c15.468 0 27.942 3.593 27.942 8.046v165.181c0 4.428-12.491 8.046-27.942 8.046h-426.496zM722.235 512.621c-145.863 0-291.713 0-437.572 0-36.644 0-36.644-56.819 0-56.819 145.863 0 291.709 0 437.572 0 36.618 0 36.618 56.819 0 56.819zM717.995 406.076c-145.863 0-291.7 0-437.563 0-36.631 0-36.631-56.819 0-56.819 145.863 0 291.7 0 437.563 0 36.639 0 36.639 56.819 0 56.819zM691.959 268.028c-50.827 0-101.671 0-152.476 0-36.644 0-36.644-56.819 0-56.819 50.827 0 101.675 0 152.476 0 36.666 0 36.666 56.819 0 56.819zM691.959 176.191c-50.827 0-101.671 0-152.476 0-36.644 0-36.644-56.819 0-56.819 50.827 0 101.675 0 152.476 0 36.666 0 36.666 56.819 0 56.819zM759.766 960h-642.059v-1024h788.586v881.957l-146.527 142.043zM838.11 4.205h-652.225v887.613h538.77v-108.175h113.454v-779.438z" />
<glyph unicode="&#xe963;" glyph-name="two-side-image" d="M721.802 384.081c-48.953 0-370.651 0-419.65 0-35.295 0-35.295-56.817 0-56.817 48.999 0 370.696 0 419.65 0 35.317 0 35.317 56.817 0 56.817zM302.971 697.688c-15.091 0-27.249-5.273-27.249-11.841v-243.29c0-6.523 12.159-11.841 27.249-11.841h416.9c15.136 0 27.295 5.318 27.295 11.841v243.29c0 6.568-12.159 11.841-27.295 11.841h-416.9zM721.802 190.313c-48.953 0-370.651 0-419.65 0-35.295 0-35.295-56.817 0-56.817 48.999 0 370.696 0 419.65 0 35.317 0 35.317 56.817 0 56.817zM721.802 292.242c-48.953 0-370.651 0-419.65 0-35.295 0-35.295-56.817 0-56.817 48.999 0 370.696 0 419.65 0 35.317 0 35.317 56.817 0 56.817zM759.756 960h-642.031v-1024h788.551v881.935l-146.519 142.065zM838.118 4.203h-652.213v887.617h538.738v-108.179h113.452l0.023-779.437z" />
<glyph unicode="&#xe964;" glyph-name="text-tool" d="M33.999 637.999h78.656c16.57 0 30 13.43 30 30s-13.43 30-30 30h-78.656c-16.57 0-30-13.43-30-30s13.43-30 30-30zM33.999 438.007c16.57 0 30 13.43 30 30v78.656c0 16.57-13.43 30-30 30s-30-13.43-30-30v-78.656c0-16.57 13.43-30 30-30zM33.999 239.327c16.57 0 30 13.43 30 30v78.656c0 16.57-13.43 30-30 30s-30-13.43-30-30v-78.656c0-16.57 13.43-30 30-30zM63.999 69.326v78.656c0 16.57-13.43 30-30 30s-30-13.43-30-30v-78.656c0-16.57 13.43-30 30-30s30 13.43 30 30zM133.32-2.002h-78.656c-16.57 0-30-13.43-30-30 0-16.563 13.43-30 30-30h78.656c16.57 0 30 13.438 30 30 0 16.57-13.43 30-30 30zM333.312-2.002h-78.664c-16.563 0-30-13.43-30-30 0-16.563 13.438-30 30-30h78.664c16.563 0 30 13.438 30 30 0 16.57-13.43 30-30 30zM533.555-2.002h-78.656c-16.57 0-30-13.43-30-30 0-16.563 13.43-29.992 30-29.992h78.656c16.57 0 30 13.43 30 29.992 0 16.57-13.43 30-30 30zM733.305-2.002h-78.664c-16.563 0-30-13.43-30-30 0-16.563 13.438-29.992 30-29.992h78.664c16.563 0 30 13.43 30 29.992 0 16.57-13.438 30-30 30zM993.978 782c16.57 0 30 13.43 30 30v120c0 16.57-13.43 30-30 30h-120c-16.57 0-30-13.43-30-30v-30h-520.001v30c0 16.57-13.43 30-30 30h-120c-16.563 0-30-13.43-30-30v-120c0-16.57 13.438-30 30-30h30v-520.001h-30c-16.563 0-30-13.43-30-30v-120c0-16.563 13.438-30 30-30h120c16.57 0 30 13.438 30 30v30h380.024v-54.344c0-16.57 13.43-30 30-30 16.563 0 29.992 13.43 29.992 30v54.344h79.985v-30c0-16.563 13.43-30 30-30h120c16.57 0 30 13.438 30 30v120c0 16.57-13.43 30-30 30h-30v520.001zM903.977 902h60v-60h-60zM203.976 902h60v-60h-60zM263.976 141.998h-60v60h60zM963.977 141.998h-60v60h60zM903.977 261.999h-30c-16.57 0-30-13.43-30-30v-30h-520.001v30c0 16.57-13.43 30-30 30h-30v520.001h30c16.57 0 30 13.43 30 30v30h520.001v-30c0-16.57 13.43-30 30-30h30zM755.977 750h-348.001c-16.563 0-30-13.43-30-30v-72c0-16.57 13.438-30 30-30 16.57 0 30 13.43 30 30v42h114v-336.001h-20c-16.563 0-30-13.43-30-30 0-16.563 13.438-30 30-30h100c16.57 0 30 13.438 30 30 0 16.57-13.43 30-30 30h-20v336.001h114v-42c0-16.57 13.43-30 30-30s30 13.43 30 30v72c0 16.57-13.43 30-30 30z" />
<glyph unicode="&#xe965;" glyph-name="letter-t" d="M1010.644 708.402c-0.562-9.225-1.805-15.602-3.489-18.73-1.805-3.369-7.059-5.816-15.722-7.34-18.811-4.171-31.324 2.968-37.501 21.378-21.859 67.783-47.889 112.784-77.97 135.325-41.753 31.004-114.789 46.566-219.351 46.566-42.274 0-65.497-4.612-69.547-13.757-1.444-3.008-2.286-7.38-2.286-12.995v-762.014c0-32.568 7.54-55.47 22.902-68.545 15.321-12.835 42.876-29.319 88.278-40.068 19.372-4.131 38.905-8.022 41.472-9.586 18.45 0 20.214-42.394-15.081-42.394-1.003-0.642-416.122 0.321-416.122 0.321s-28.998 17.607-2.968 41.031c10.869 4.853 30.763 13.757 30.763 13.757s73.398 24.626 88.679 40.469c17.407 17.848 25.99 46.686 25.99 86.393v740.676c0 14.8-9.185 23.463-27.554 25.95-1.965 0.602-17.046 0.802-45.001 0.802-96.861 0-168.093-16.765-214.097-50.496-34.653-24.947-65.336-70.751-92.369-137.651-8.703-20.856-20.736-27.634-35.977-20.575-17.327 4.051-23.624 13.597-19.132 28.276 17.848 55.109 26.792 132.758 26.792 233.189 0 11.712 15.522 23.503 46.646 21.378l856.95-2.326c28.437 4.171 43.958-0.481 46.525-13.757 14.278-67.743 20.616-146.194 19.172-235.274z" />
<glyph unicode="&#xe966;" glyph-name="folder-open" d="M1020.368 483.877l-140.876-387.872h-773.241l145.496 388.058c12.382 32.931 51.317 59.934 86.504 59.934h640.003c35.183 0.002 54.181-27.060 42.115-60.119zM62.061 160.372l129.815 346.13c21.619 57.876 84.551 101.494 146.372 101.494h557.739c0 35.381-28.621 64.002-63.992 64.002h-447.993l-64.002 127.998h-256.003c-35.375-0.002-63.996-28.623-63.996-64v-511.998c0-34.68 27.623-62.504 62.061-63.627z" />
<glyph unicode="&#xe967;" glyph-name="iconfinder_v-10_3162599" d="M341.28 34.88l-341.28 340.64 93.92 93.92 247.36-246.88 588.8 587.68 93.92-93.92-682.72-681.44z" />
<glyph unicode="&#xe968;" glyph-name="iconfinder_check-tick-mark-correct-choose_3209370" d="M968.561 817.869l-681.841-681.82-231.281 231.26-28.959-28.938 260.239-260.239 710.799 710.799z" />
<glyph unicode="&#xe969;" glyph-name="cross_sml" d="M1024 913.461l-46.539 46.539-465.461-465.461-465.461 465.461-46.539-46.539 465.461-465.461-465.461-465.461 46.539-46.539 465.461 465.461 465.461-465.461 46.539 46.539-465.461 465.461z" />
<glyph unicode="&#xe96a;" glyph-name="cross_smltwo" d="M1023.977 928.087l-31.863 31.913-480.114-480.082-480.082 480.082-31.895-31.913 480.082-480.078-480.082-480.082 31.895-31.927 480.082 480.146 480.114-480.146 31.863 31.927-480.082 480.082z" />
<glyph unicode="&#xe96b;" glyph-name="map-pin-marked" d="M780.21 689.231c0 148.145-120.075 268.221-268.242 268.221s-268.221-120.075-268.221-268.221c0-212.251 268.221-526.335 268.221-526.335s268.242 315.176 268.242 526.335zM379.688 705.247c0 73.077 59.245 132.301 132.301 132.301s132.301-59.224 132.301-132.301c0-73.077-59.245-132.301-132.301-132.301s-132.301 59.224-132.301 132.301zM577.016 705.247c0-35.925-29.123-65.048-65.048-65.048s-65.048 29.123-65.048 65.048c0 35.925 29.123 65.048 65.048 65.048s65.048-29.123 65.048-65.048zM663.625 256.207c-21.861-31.603-42.373-59.117-59.459-81.213 169.493-10.192 280.575-46.784 321.899-73.998-48.411-31.924-192.253-76.803-414.054-76.803-221.779 0-365.642 44.9-414.054 76.803 41.324 27.214 152.321 63.785 321.642 73.976-17.129 22.097-37.663 49.589-59.545 81.192-208.568-20.534-360.054-82.241-360.054-155.147 0-89.714 229.252-162.47 512.011-162.47 282.78 0 511.989 72.713 511.989 162.47 0.043 72.949-151.614 134.678-360.375 155.19z" />
<glyph unicode="&#xe96c;" glyph-name="scooter" d="M437.063 100.094c-5.266 0-10.422-2.141-14.141-5.859s-5.859-8.883-5.859-14.141 2.141-10.422 5.859-14.141c3.719-3.719 8.875-5.859 14.141-5.859 5.258 0 10.414 2.141 14.141 5.859 3.719 3.719 5.859 8.859 5.859 14.141 0 5.258-2.141 10.422-5.859 14.141-3.727 3.719-8.883 5.859-14.141 5.859zM835.414 435.867l-46.609 210.57c12.578 1.703 23.672 8.102 31.477 17.367 9.211-5.758 20.078-9.102 31.719-9.102h40c11.047 0 20 8.953 20 20v80c0 11.047-8.953 20-20 20h-40c-11.984 0-23.156-3.547-32.539-9.633-9.156 10.352-22.523 16.898-37.398 16.898h-118.063c-21.211 0-39.367-13.305-46.594-32h-47.406c-28.672 0-52-23.328-52-52s23.328-52 52-52h102.945v-40.305c0-11.047 8.953-20 20-20s20 8.953 20 20v40.305h35l50.203-226.836-95.016-169.234c-10.383-18.422-29.961-29.867-51.109-29.867h-237.195c-9.93 83.273-80.93 148.063-166.828 148.063-38.008 0-73.867-12.383-103.703-35.805-0.039-0.031-0.078-0.063-0.117-0.094-35.523-27.938-57.852-68.031-63.055-112.164h-41.078c2.609 143.781 120.383 259.938 264.766 259.938h141.875c11.195 0 20.313-9.117 20.313-20.32v-179.617c0-11.047 8.953-20 20-20h106.422c43.414 0 83.422 23.609 104.406 61.602 9.711 17.578 14.859 37.484 14.875 57.555l0.102 66.445c0.016 11.047-8.93 20.016-19.977 20.031-0.008 0-0.016 0-0.023 0-11.031 0-19.984-8.938-20-19.969l-0.102-66.461c-0.008-13.344-3.43-26.578-9.883-38.258-13.953-25.25-40.547-40.938-69.398-40.938h-86.422v159.617c0 10.242-2.578 19.898-7.102 28.359 17.969 10.383 30.094 29.789 30.094 51.984 0 33.086-26.922 60-60 60h-73c-7.016 0-13.742-1.219-20-3.438v175.438c0 33.086-26.922 60-60 60h-129.023c-93.531 0-171.313-68.672-185.609-158.234-0.602-1.906-0.93-3.93-0.93-6.031 0-0.125 0.016-0.242 0.016-0.359-0.953-7.656-1.445-15.445-1.445-23.344v-104.039c0-30.039 22.195-54.992 51.047-59.328l44.289-44.289c-58.68-55.594-95.336-134.203-95.336-221.227v-15.117c0-11.047 8.953-20 20-20h112.398c-0.258-1.289-0.398-2.633-0.398-4 0-29.023 10.742-55.578 28.43-75.938h-140.43c-11.047 0-20-8.961-20-20 0-11.047 8.953-20 20-20h225.688c0.773-0.023 1.539-0.063 2.313-0.063 63.961 0 116 52.039 116 116 0 1.367-0.141 2.711-0.398 4h288.422c31.492 0 60.922 15.094 79.367 40.063h25.328c-5.695-13.859-8.719-28.797-8.719-44.063 0-29.023 10.742-55.578 28.43-75.938h-259.367c-11.047 0-20-8.961-20-20 0-11.047 8.953-20 20-20h344.625c0.773-0.023 1.539-0.063 2.313-0.063 63.961 0 116 52.039 116 116 0 15.266-3.023 30.203-8.719 44.063h32.719c11.047 0 20 8.953 20 20 0 105.57-83.945 191.906-188.586 195.773zM396.992 559.992h73c11.023 0 20-8.969 20-20 0-11.023-8.977-20-20-20h-73c-11.031 0-20 8.977-20 20 0 11.031 8.969 20 20 20zM40 644.031c0 1.234 0.063 2.461 0.094 3.695h218.852c11.047 0 20 8.953 20 20s-8.953 20-20 20h-212.352c18.688 60.328 74.992 104.266 141.375 104.266h129.016c11.031 0 20-8.969 20-20v-232c0-11.023-8.969-20-20-20h-256.977s-0.008 0-0.016 0c-11.023 0-19.992 8.977-19.992 20zM108.289 479.992h45.766c-9.609-5.484-18.883-11.492-27.805-17.961zM324 176.031c0-41.648-33.68-75.563-75.227-75.977-0.258 0.008-0.516 0.039-0.773 0.039h-2.305c-40.844 1.227-73.695 34.805-73.695 75.938 0 1.367-0.141 2.711-0.398 4h152.797c-0.258-1.289-0.398-2.633-0.398-4zM121.484 220.031c4.953 31.773 21.641 60.477 47.414 80.719 0.063 0.039 0.117 0.094 0.18 0.133 22.703 17.797 49.992 27.211 78.922 27.211 63.813 0 116.867-46.914 126.5-108.063zM852 734.703h20v-40h-20c-11.031 0-20 8.969-20 20 0 11.023 8.969 20 20 20zM558 697.969c0 6.617 5.383 12 12 12h44.063v-14.063c0-3.406 0.344-6.727 0.992-9.938h-45.055c-6.617 0-12 5.383-12 12zM692.945 685.969h-28.945c-5.477 0-9.938 4.453-9.938 9.938v36.125c0 5.477 4.461 9.938 9.938 9.938h118.063c5.477 0 9.938-4.461 9.938-9.938v-36.125c0-5.484-4.461-9.938-9.938-9.938zM940 176.031c0-41.648-33.68-75.563-75.227-75.977-0.258 0.008-0.516 0.039-0.773 0.039h-2.305c-40.844 1.227-73.695 34.805-73.695 75.938 0 15.891 4.953 31.25 14.078 44.063h123.844c9.125-12.813 14.078-28.172 14.078-44.063zM754.727 260.094l76.266 135.836c77.883-1.43 142.008-60.219 151.727-135.836zM692.945 505.664c11.047 0 20 8.953 20 20s-8.953 20-20 20h-0.070c-11.047 0-19.969-8.953-19.969-20s8.992-20 20.039-20z" />
<glyph unicode="&#xe96d;" glyph-name="profile1" d="M508.289 408.24c1.060 0 2.121 0 3.393 0 0.424 0 0.848 0 1.272 0 0.636 0 1.484 0 2.121 0 62.131 1.060 112.388 22.902 149.497 64.676 81.64 92.031 68.069 249.797 66.584 264.853-5.301 113.024-58.738 167.097-102.845 192.331-32.868 18.873-71.25 29.051-114.084 29.899h-1.484c-0.212 0-0.636 0-0.848 0h-1.272c-23.538 0-69.765-3.817-114.084-29.051-44.531-25.234-98.816-79.308-104.118-193.18-1.484-15.056-15.056-172.823 66.584-264.853 36.897-41.774 87.153-63.616 149.285-64.676zM349.038 732.468c0 0.636 0.212 1.272 0.212 1.696 6.998 152.041 114.932 168.369 161.16 168.369h0.848c0.424 0 1.060 0 1.696 0 57.254-1.272 154.586-24.598 161.16-168.369 0-0.636 0-1.272 0.212-1.696 0.212-1.484 15.056-145.68-52.377-221.595-26.719-30.111-62.343-44.955-109.207-45.379-0.424 0-0.636 0-1.060 0v0c-0.424 0-0.636 0-1.060 0-46.651 0.424-82.488 15.268-108.995 45.379-67.221 75.491-52.801 220.322-52.589 221.595zM947.449 146.568c0 0.212 0 0.424 0 0.636 0 1.696-0.212 3.393-0.212 5.301-1.272 41.986-4.029 140.166-96.060 171.55-0.636 0.212-1.484 0.424-2.121 0.636-95.636 24.386-175.155 79.52-176.003 80.156-12.935 9.118-30.748 5.937-39.866-6.998s-5.937-30.748 6.998-39.866c3.605-2.545 88.002-61.283 193.604-88.426 49.408-17.6 54.922-70.401 56.406-118.749 0-1.908 0-3.605 0.212-5.301 0.212-19.085-1.060-48.56-4.453-65.524-34.352-19.509-169.006-86.941-373.848-86.941-203.994 0-339.496 67.645-374.060 87.153-3.393 16.964-4.877 46.439-4.453 65.524 0 1.696 0.212 3.393 0.212 5.301 1.484 48.348 6.998 101.149 56.406 118.749 105.602 27.143 189.999 86.093 193.604 88.426 12.935 9.118 16.116 26.931 6.998 39.866s-26.931 16.116-39.866 6.998c-0.848-0.636-79.944-55.77-176.003-80.156-0.848-0.212-1.484-0.424-2.121-0.636-92.031-31.596-94.787-129.776-96.060-171.55 0-1.908 0-3.605-0.212-5.301 0-0.212 0-0.424 0-0.636-0.212-11.027-0.424-67.645 10.815-96.060 2.121-5.513 5.937-10.179 11.027-13.359 6.362-4.241 158.827-101.361 413.926-101.361s407.564 97.332 413.926 101.361c4.877 3.181 8.906 7.846 11.027 13.359 10.603 28.203 10.391 84.821 10.179 95.848z" />
<glyph unicode="&#xe96e;" glyph-name="lock" d="M819.2 550.4h-512v153.6c0 113.118 91.682 204.8 204.8 204.8s204.8-91.682 204.8-204.8h51.2c0 141.158-114.842 256-256 256s-256-114.842-256-256v-153.6h-51.2c-28.28 0-51.2-22.92-51.2-51.2v-512c0-28.28 22.92-51.2 51.2-51.2h614.4c28.28 0 51.2 22.92 51.2 51.2v512c0 28.28-22.92 51.2-51.2 51.2zM819.2-12.8h-614.4v512h614.4v-512zM512 345.6c-42.342 0-76.8-34.458-76.8-76.8 0-33.332 21.47-61.474 51.2-72.090v-81.51h51.2v81.51c29.73 10.598 51.2 38.758 51.2 72.090 0 42.342-34.458 76.8-76.8 76.8zM512 243.2c-14.132 0-25.6 11.468-25.6 25.6s11.468 25.6 25.6 25.6c14.132 0 25.6-11.468 25.6-25.6s-11.468-25.6-25.6-25.6z" />
<glyph unicode="&#xe96f;" glyph-name="location" d="M512 960c-198.504 0-360-161.496-360-360 0-67.068 18.578-132.52 53.738-189.304l285.77-460.514c5.474-8.822 15.118-14.182 25.49-14.182 0.080 0 0.158 0 0.238 0 10.462 0.082 20.126 5.608 25.5 14.584l278.486 464.976c33.22 55.584 50.778 119.362 50.778 184.44 0 198.504-161.496 360-360 360zM769.732 446.364l-253.188-422.736-259.81 418.68c-29.266 47.264-45.134 101.792-45.134 157.692 0 165.42 134.98 300.4 300.4 300.4s300.2-134.98 300.2-300.4c0-54.242-14.822-107.376-42.468-153.636zM512 780c-99.252 0-180-80.748-180-180 0-98.618 79.434-180 180-180 101.806 0 180 82.466 180 180 0 99.252-80.748 180-180 180zM512 479.6c-66.514 0-120.4 54.066-120.4 120.4 0 66.168 54.232 120.4 120.4 120.4s120.2-54.232 120.2-120.4c0-65.366-52.632-120.4-120.2-120.4z" />
<glyph unicode="&#xe970;" glyph-name="box" d="M945.797 526.734h-31.93l-36.656 201.594c-10.563 58.133-65.125 103.672-124.219 103.672h-481.992c-59.086 0-113.648-45.539-124.219-103.672l-36.656-201.594h-31.922c-43.125 0-78.203-35.086-78.203-78.203s35.078-78.203 78.203-78.203h31.922l36.656-201.594c10.57-58.133 65.133-103.672 124.219-103.672h481.992c59.094 0 113.656 45.539 124.219 103.672l36.656 201.594h31.93c43.125 0 78.203 35.086 78.203 78.203s-35.078 78.203-78.203 78.203zM205.813 717.594c5.266 28.984 35.727 54.406 65.188 54.406h481.992c29.461 0 59.922-25.422 65.195-54.406l34.703-190.859h-118.094v66.398c0 16.57-13.43 30-30 30-16.563 0-30-13.43-30-30v-66.398h-132.789v66.398c0 16.57-13.438 30-30 30-16.57 0-30-13.43-30-30v-66.398h-132.805v66.398c0 16.57-13.438 30-30 30-16.57 0-30-13.43-30-30v-66.398h-118.094zM818.188 179.469c-5.273-28.984-35.734-54.406-65.195-54.406h-481.992c-29.461 0-59.922 25.422-65.188 54.406l-34.703 190.859h118.094v-66.398c0-16.563 13.43-30 30-30 16.563 0 30 13.438 30 30v66.398h132.797v-66.398c0-16.563 13.438-30 30-30 16.57 0 30 13.438 30 30v66.398h132.797v-66.398c0-16.563 13.43-30 30-30s30 13.438 30 30v66.398h118.086zM945.797 430.328h-867.594c-10.039 0-18.203 8.164-18.203 18.203s8.164 18.203 18.203 18.203h56.883c0.039 0 0.070-0.008 0.109-0.008s0.070 0.008 0.109 0.008h810.492c10.039 0 18.203-8.164 18.203-18.203s-8.164-18.203-18.203-18.203z" />
<glyph unicode="&#xe971;" glyph-name="cereals1" d="M777.53 958.731l-59.851-119.703h-411.359l-59.851 119.703h-246.468l78.348-156.693v-864.771h867.307v864.771l78.348 156.693h-246.472zM96.842 898.88h112.638l29.926-59.851h-112.638zM706.249-2.882h-568.050v506.742h568.050zM706.249 563.712h-568.050v215.465h568.050zM885.803-2.882h-119.703v253.371h119.703zM885.803 310.341h-119.703v468.836h119.703zM897.233 839.028h-112.638l29.926 59.851h112.638zM422.224 56.97c123.208 0 223.445 100.237 223.445 223.445v29.926h-62.642c-14.105 75.957-80.819 133.668-160.803 133.668s-146.696-57.711-160.803-133.668h-62.642v-29.926c0-123.208 100.237-223.445 223.445-223.445zM422.224 384.157c46.802 0 86.447-31.159 99.323-73.817h-198.647c12.876 42.658 52.522 73.817 99.323 73.817zM583.075 250.489c-14.099-75.965-80.863-133.668-160.851-133.668s-146.752 57.703-160.851 133.668z" />
<glyph unicode="&#xe972;" glyph-name="credit-card_new" d="M996.818 608.588l-324.252 324.248c-17.504 17.502-40.846 27.142-65.73 27.142-24.882 0-48.226-9.636-65.73-27.138l-513.964-513.966c-17.502-17.504-27.142-40.844-27.142-65.728s9.64-48.228 27.142-65.728l39.984-39.984c0.004-0.002 0.006-0.006 0.010-0.010s0.008-0.008 0.012-0.012l268.72-268.72h-37.208c-11.78 0-21.332-9.55-21.332-21.332 0-11.78 9.552-21.332 21.332-21.332h118.378c0.028 0 0.054-0.002 0.082-0.002s0.054 0.002 0.082 0.002l308.106-0.004c11.78 0 21.332 9.552 21.332 21.332 0 11.782-9.552 21.332-21.332 21.332l-226.928 0.004 498.44 498.44c36.24 36.244 36.24 95.216-0.002 131.456zM966.65 507.3l-513.968-513.968c-9.426-9.424-22.026-14.62-35.484-14.64h-0.162c-13.454 0.022-26.050 5.216-35.472 14.64l-269.174 269.176 493.59 493.594c8.33 8.33 8.33 21.838 0 30.168-8.332 8.33-21.836 8.33-30.17-0.002l-493.59-493.594-24.912 24.912c-9.442 9.442-14.642 22.070-14.642 35.558s5.2 26.118 14.644 35.562l513.964 513.964c9.444 9.442 22.074 14.642 35.562 14.642s26.118-5.2 35.562-14.644l115.406-115.404-493.596-493.6c-8.33-8.328-8.33-21.836 0-30.17 4.166-4.164 9.626-6.246 15.084-6.246s10.918 2.084 15.084 6.248l493.596 493.598 178.678-178.672c19.606-19.608 19.604-51.514 0-71.122zM525.602 343.872c-8.33 8.33-21.834 8.328-30.17 0l-167.868-167.866c-8.33-8.33-8.33-21.836 0-30.17 4.166-4.166 9.626-6.248 15.084-6.248s10.918 2.084 15.084 6.248l167.868 167.866c8.332 8.334 8.332 21.84 0.002 30.17zM456.75 184.518l-68.85-68.85c-8.33-8.33-8.33-21.838 0-30.17 4.166-4.164 9.626-6.248 15.084-6.248 5.462 0 10.918 2.084 15.084 6.248l68.85 68.85c8.33 8.33 8.33 21.838 0 30.17s-21.832 8.332-30.168 0zM520.108 247.87l-9.050-9.048c-8.332-8.33-8.332-21.836-0.002-30.17 4.164-4.166 9.626-6.25 15.084-6.25s10.918 2.084 15.082 6.25l9.050 9.048c8.332 8.33 8.332 21.836 0.002 30.168-8.326 8.33-21.836 8.332-30.166 0.002zM814.146 632.414c-4 4-9.426 6.248-15.084 6.248s-11.082-2.248-15.084-6.248l-90.51-90.508c-4-4.002-6.248-9.426-6.248-15.084s2.248-11.084 6.248-15.084l60.34-60.334c4.166-4.166 9.626-6.248 15.084-6.248 5.462 0 10.918 2.084 15.084 6.248l90.506 90.504c8.33 8.33 8.33 21.838 0 30.168l-60.336 60.338zM768.89 496.654l-30.17 30.168 60.34 60.338 30.168-30.17-60.338-60.336zM640.678 799.628c5.462 0 10.922 2.084 15.086 6.252l9.050 9.054c8.328 8.332 8.326 21.84-0.006 30.168-8.33 8.328-21.84 8.326-30.168-0.006l-9.050-9.054c-8.328-8.332-8.326-21.84 0.006-30.168 4.166-4.166 9.622-6.246 15.082-6.246zM214.43 243.886l-9.050-9.050c-8.33-8.328-8.33-21.836 0-30.17 4.166-4.164 9.626-6.246 15.084-6.246s10.918 2.082 15.084 6.246l9.050 9.050c8.33 8.332 8.33 21.84 0 30.17-8.332 8.332-21.836 8.332-30.168 0z" />
</font>
</defs>
</svg>
