<svg id="Layer_1" data-name="Layer 1" xmlns="http://www.w3.org/2000/svg" xmlns:xlink="http://www.w3.org/1999/xlink" viewBox="0 0 283.46 198.43"><defs><style>.cls-1,.cls-2,.cls-3,.cls-4,.cls-5{fill-rule:evenodd;}.cls-1{fill:url(#linear-gradient);}.cls-2{fill:url(#linear-gradient-2);}.cls-4{fill:#083f1f;}.cls-5{fill:#c42128;}</style><linearGradient id="linear-gradient" x1="75.15" y1="39.07" x2="223.5" y2="39.07" gradientUnits="userSpaceOnUse"><stop offset="0" stop-color="#c42128"/><stop offset="0.19" stop-color="#c62528"/><stop offset="0.37" stop-color="#cb3126"/><stop offset="0.56" stop-color="#d44525"/><stop offset="0.75" stop-color="#e16222"/><stop offset="0.94" stop-color="#f1861e"/><stop offset="1" stop-color="#f7941d"/></linearGradient><linearGradient id="linear-gradient-2" x1="60.79" y1="116.42" x2="209.14" y2="116.42" gradientUnits="userSpaceOnUse"><stop offset="0" stop-color="#c1d82f"/><stop offset="0.05" stop-color="#b5ce2d"/><stop offset="0.39" stop-color="#688e23"/><stop offset="0.68" stop-color="#305f1b"/><stop offset="0.89" stop-color="#0d4217"/><stop offset="1" stop-color="#003715"/></linearGradient></defs><path class="cls-1" d="M75.15,52.9A85.31,85.31,0,0,1,94,40.13a135.63,135.63,0,0,1,43.11-13.36,150.39,150.39,0,0,1,30.05-1.3c15.59.89,30.69,3.94,44.57,11.53a54.44,54.44,0,0,1,11.82,8.64c-24.69-8.19-49.68-9.45-74.92-8.14S98.72,43.41,75.15,52.9Z"/><path class="cls-2" d="M209.14,102.58a85.6,85.6,0,0,1-18.81,12.77,135.63,135.63,0,0,1-43.11,13.36,150.26,150.26,0,0,1-30,1.3c-15.6-.89-30.69-3.95-44.58-11.53a54.38,54.38,0,0,1-11.81-8.64c24.68,8.19,49.67,9.45,74.92,8.14S185.56,112.07,209.14,102.58Z"/><path class="cls-3" d="M187.07,99.82a52.37,52.37,0,0,1-5.92-.89c-4.64-1.21-6.42-4.2-5-8.7a114.33,114.33,0,0,1,5-12.94c2.69-5.76,7.85-8.33,13.86-9a38.73,38.73,0,0,1,10.59.36c4.86.86,6.69,4.29,5.11,9A130.56,130.56,0,0,1,206,90.15c-2.52,5.59-7.36,8.17-13.17,9.12C191.06,99.55,189.27,99.62,187.07,99.82ZM189.8,93c3.46,0,5.63-1,6.78-3.59,1.6-3.68,3-7.47,4.33-11.25a2.23,2.23,0,0,0-1.07-3c-2.9-1.43-7.85-.13-9.2,2.79a121.85,121.85,0,0,0-4.51,11.56c-.69,2,.26,3.1,2.44,3.38Z"/><path class="cls-3" d="M118.11,99.69c1.75-4.62,3.27-8.66,4.8-12.69,2.49-6.53,4.94-13.08,7.5-19.59s7.73-9.55,14.16-10.91a21.62,21.62,0,0,1,10.92.32,9.49,9.49,0,0,1,2.7,1.3,3.12,3.12,0,0,1,.94,4.54,43.59,43.59,0,0,1-3.82,4.19c-2.75-3.65-6.08-4.45-10-3.14-4.91,1.66-6.19,6-7.58,10.53h9.67c-1.6,4.71-5.27,7.46-9.23,7.22-3.35-.2-3.35,0-4.56,3.14s-2.48,6.28-3.58,9.47A5.9,5.9,0,0,1,126,98.16C123.53,98.81,121,99.14,118.11,99.69Z"/><path class="cls-3" d="M96.77,56.34C92.23,68.22,87.7,80.09,83.21,91.82h18.31c-1,4.79-4.21,7.47-9.34,7.47H77.91c-4.39,0-6.29-2.7-4.75-6.79,4-10.48,8-20.93,11.94-31.41a5.89,5.89,0,0,1,4-3.79c2.42-.68,4.93-1,7.4-1.55C96.58,56,96.67,56.15,96.77,56.34Z"/><path class="cls-4" d="M130.54,133.19c18.18-.85,35.8-4.2,52.68-11,12.94-5.25,24.83-12.21,34.6-22.37,2.05-2.13,3.9-4.46,6-6.91a13,13,0,0,1-.14,1.42c-2.6,10.35-8.84,18.13-17.31,24.28-9.54,6.92-20.37,10.78-31.79,13.19a131.74,131.74,0,0,1-31.88,2.43C138.65,134.06,134.6,133.54,130.54,133.19Z"/><path class="cls-5" d="M152.22,22.49c-3.9.36-7.8.67-11.68,1.08a145,145,0,0,0-44.83,12C85.4,40.21,75.88,46.09,67.75,54c-2.71,2.64-5.1,5.6-7.94,8.75.45-1.67.74-3,1.18-4.31,3.45-10.29,10.44-17.69,19.37-23.42,9.74-6.25,20.52-9.71,31.82-11.8a140.21,140.21,0,0,1,32-1.73c2.72.12,5.42.5,8.13.76A1.6,1.6,0,0,1,152.22,22.49Z"/><path class="cls-3" d="M174.26,78.49c-3.07-5.67-11.77-4.63-14,1-1,2.53-2.06,5-3,7.61-1.45,4,.1,6.16,4.32,5.6A82.59,82.59,0,0,0,171,90.39c.32-.09.64-.23,1-.38.32,2-.65,3.44-1.8,4.72a15.3,15.3,0,0,1-11,4.84,27.28,27.28,0,0,1-7.75-.67c-4.6-1.1-6.45-4.47-5-8.92a124.56,124.56,0,0,1,4.82-12.42c2.64-5.75,7.6-8.5,13.65-9.26a31.25,31.25,0,0,1,7.79.07c2.38.29,4.71,1.2,5.28,4C178.61,74.77,177.24,76.88,174.26,78.49Z"/><path class="cls-3" d="M124.78,67.78l-6.37,16.78c-1.22,3.21-2.52,6.4-3.68,9.64a6,6,0,0,1-3.36,3.7A17.45,17.45,0,0,1,103,99.23c1.23-3.24,2.41-6.33,3.58-9.42,2-5.15,4.11-10.24,5.84-15.47a8,8,0,0,1,6.89-5.82C121,68.24,122.76,68.05,124.78,67.78Z"/><path class="cls-3" d="M132.45,162.52v14.84h-3.22V156.45c1.89-.55,3.25-.24,4.36,1.58,1.88,3.09,4,6,6.13,9.14,2-3.07,3.86-6,5.76-9,1.39-2.18,1.62-2.27,4.39-1.67v20.88h-3.05V162a11.26,11.26,0,0,0-1,1.15c-1.55,2.39-3.06,4.81-4.6,7.2-1,1.47-2,1.49-3,0-1.82-2.64-3.6-5.3-5.4-7.95Z"/><path class="cls-3" d="M184.35,167.64l6.08,9.61c-2.6.67-4.3.17-5.37-2.27a43.35,43.35,0,0,0-3.09-5,2.36,2.36,0,0,0-3-1.07v8.41H175.6V156.11c2.77.17,5.49.15,8.14.56a4.74,4.74,0,0,1,4.15,4.29,5.69,5.69,0,0,1-2.63,6.13C185,167.29,184.65,167.46,184.35,167.64ZM179,166.15c2,.17,3.89.19,5.1-1.71a3.24,3.24,0,0,0-.08-4c-1.32-1.66-3.15-1.45-5-1.22Z"/><path class="cls-3" d="M125.77,177.26c-2.56.63-4.29.22-5.36-2.24a40,40,0,0,0-3.07-5,2.36,2.36,0,0,0-3.22-1v8.35h-3.27V156.15c2.71.12,5.4,0,8,.42a4.85,4.85,0,0,1,4.3,4c.49,2.5,0,4.72-2.25,6.3l-1.21.82Zm-11.59-11.15c2.25.27,4.16.16,5.32-1.88a3.16,3.16,0,0,0-.25-3.82c-1.38-1.68-3.21-1.32-5.07-1.19Z"/><path class="cls-3" d="M71.74,156.34h3c0,5.3.28,10.53-.11,15.7-.24,3.27-2.78,5.09-6.09,5.47-.53.06-1.07.13-1.6.15-6,.26-8.72-2.35-8.73-8.3,0-4.17,0-8.33,0-12.49a2.74,2.74,0,0,1,.13-.48h3.09v7.8c0,1.91,0,3.81,0,5.71a4.84,4.84,0,0,0,4.92,5c2.91.15,5-1.41,5.26-4.38.24-2.47.11-5,.13-7.48C71.75,160.88,71.74,158.69,71.74,156.34Z"/><path class="cls-3" d="M200,166.57l9.12,10.77c-2.35.24-4.23.45-5.75-1.76-1.76-2.56-3.95-4.82-6.27-7.59v9.37H194v-21h3.1v9.17c2.07-2.55,4-4.57,5.5-6.88,1.38-2.11,3.08-2.68,5.67-2.07Z"/><path class="cls-3" d="M172.19,177.42h-3.57a45.13,45.13,0,0,0-1.76-4.28,2.42,2.42,0,0,0-1.64-1.13c-1.77-.14-3.56,0-5.34-.07a1.52,1.52,0,0,0-1.77,1.31,13.49,13.49,0,0,1-.62,1.67c-1,2.76-1,2.76-4.15,2.39.92-2.4,1.82-4.77,2.72-7.13,1.57-4.09,3.18-8.16,4.71-12.27.5-1.36,1-2.44,3.11-1.5Zm-6.85-8.28-2.77-8.06c-1,3-1.92,5.43-2.86,8.06Z"/><path class="cls-3" d="M95.15,156.35h10.78c-.17,2.55-.38,2.75-2.79,2.76-1.3,0-2.61,0-3.92,0a3.93,3.93,0,0,0-.67.13v5.83h6.68v2.78H98.4c0,2.08-.07,3.91.06,5.73,0,.36.81.92,1.26.94,2.13.1,4.27.05,6.54.05v2.77H95.15Z"/><path class="cls-3" d="M212.53,177.34v-21h10.83c-.08,2.45-.36,2.73-2.7,2.74H216v6h6.71v2.77c-1.77,0-3.48.06-5.18,0-1.21-.06-1.76.3-1.66,1.59a31.11,31.11,0,0,1,0,3.74c-.06,1.11.42,1.44,1.47,1.41,2.12-.06,4.25,0,6.46,0v2.75Z"/><path class="cls-3" d="M79.39,156.15a60.92,60.92,0,0,1,7.44.44c3.16.58,4.94,3.3,4.76,6.59a6.59,6.59,0,0,1-5.6,6.43c-1.1.18-2.22.23-3.49.36v7.4H79.39Zm3.2,10.92c2,.22,3.9.2,5-1.69a4,4,0,0,0-.13-4.69c-1.21-1.63-3-1.73-4.88-1.44Z"/><path class="cls-3" d="M41.27,175.77l1.19-2.19c1.14.42,2.16.85,3.22,1.15a5.61,5.61,0,0,0,2.11.21c1.39-.16,2.77-.59,3.2-2.13s-.47-2.53-1.61-3.29c-1.42-1-3-1.76-4.39-2.72-2.68-1.8-3.61-4.19-2.78-6.89.7-2.28,3.08-3.81,6-3.83a12.14,12.14,0,0,1,2.48.18c3,.61,3,.63,2.74,3.51a29.55,29.55,0,0,0-5.32-.77,3.41,3.41,0,0,0-2.56,1.67,3.18,3.18,0,0,0,.94,2.74c1.21,1.1,2.84,1.71,4.14,2.73a12.86,12.86,0,0,1,3.44,3.46,5.27,5.27,0,0,1-2.32,7C48.91,178.3,44.09,177.92,41.27,175.77Z"/><path class="cls-3" d="M232.67,159.09h-6.15v-2.7h15.84c-.28,2.65-.35,2.71-2.67,2.72H236v18.24h-3.36Z"/><path class="cls-3" d="M129.1,56.14c-1.79,6.48-5.49,8.84-12.52,8.08C117.47,58.37,121.31,55.87,129.1,56.14Z"/></svg>